<?xml version="1.0" encoding="UTF-8"?>
<svg id="Layer_1" xmlns="http://www.w3.org/2000/svg" version="1.1" viewBox="0 0 512 512">
  <!-- Generator: Adobe Illustrator 30.0.0, SVG Export Plug-In . SVG Version: 2.1.1 Build 123)  -->
  <defs>
    <style>
      .st0 {
        fill: #9f8151;
      }
    </style>
  </defs>
  <path class="st0" d="M114.82,463.32c-3.08,0-5.6-2.46-5.66-5.55-.06-3.13,2.42-5.71,5.55-5.78l178.46-3.56s.08,0,.11,0c113.87,0,206.51-85.94,206.51-191.58,0-57.36-17.84-105.56-51.59-139.37-38.07-38.14-94.62-57.48-168.07-57.48H120.48v330c0,3.13-2.54,5.66-5.66,5.66s-5.66-2.54-5.66-5.66V54.34c0-3.13,2.54-5.66,5.66-5.66h165.31c76.57,0,135.81,20.46,176.08,60.81,35.91,35.98,54.89,86.94,54.89,147.37,0,53.72-22.71,104.52-63.94,143.05-41.29,38.58-95.92,59.84-153.84,59.85l-178.4,3.56s-.08,0-.11,0Z"/>
  <path class="st0" d="M223.08,193.61H6.55c-3.13,0-5.66-2.54-5.66-5.66s2.54-5.66,5.66-5.66h216.53c3.13,0,5.66,2.54,5.66,5.66s-2.54,5.66-5.66,5.66Z"/>
  <path class="st0" d="M223.08,320.58H6.55c-3.13,0-5.66-2.54-5.66-5.66s2.54-5.66,5.66-5.66h216.53c3.13,0,5.66,2.54,5.66,5.66s-2.54,5.66-5.66,5.66Z"/>
</svg>