<?xml version="1.0" encoding="UTF-8"?>
<svg id="Layer_1" xmlns="http://www.w3.org/2000/svg" version="1.1" viewBox="0 0 512 512">
  <!-- Generator: Adobe Illustrator 30.0.0, SVG Export Plug-In . SVG Version: 2.1.1 Build 123)  -->
  <defs>
    <style>
      .st0 {
        fill: #9f8151;
      }
    </style>
  </defs>
  <path class="st0" d="M246.2,384.78H44.32c-3.04,0-5.5-2.46-5.5-5.5s2.46-5.5,5.5-5.5h201.87c3.04,0,5.5,2.46,5.5,5.5s-2.46,5.5-5.5,5.5Z"/>
  <path class="st0" d="M246.2,427.45H44.32c-3.04,0-5.5-2.46-5.5-5.5s2.46-5.5,5.5-5.5h201.87c3.04,0,5.5,2.46,5.5,5.5s-2.46,5.5-5.5,5.5Z"/>
  <path class="st0" d="M276.12,470.13H14.4c-3.04,0-5.5-2.46-5.5-5.5s2.46-5.5,5.5-5.5h261.72c3.04,0,5.5,2.46,5.5,5.5s-2.46,5.5-5.5,5.5Z"/>
  <path class="st0" d="M246.2,470.13c-3.04,0-5.5-2.46-5.5-5.5v-102.93c0-3.04,2.46-5.5,5.5-5.5s5.5,2.46,5.5,5.5v102.93c0,3.04-2.46,5.5-5.5,5.5Z"/>
  <path class="st0" d="M258.62,510.35c-3.04,0-5.5-2.46-5.5-5.5v-40.22c0-3.04,2.46-5.5,5.5-5.5s5.5,2.46,5.5,5.5v40.22c0,3.04-2.46,5.5-5.5,5.5Z"/>
  <path class="st0" d="M360.57,484.56c-3.04,0-5.5-2.46-5.5-5.5V197.57c0-3.04,2.46-5.5,5.5-5.5s5.5,2.46,5.5,5.5v281.48c0,3.04-2.46,5.5-5.5,5.5Z"/>
  <path class="st0" d="M31.9,510.35c-3.04,0-5.5-2.46-5.5-5.5v-40.22c0-3.04,2.46-5.5,5.5-5.5s5.5,2.46,5.5,5.5v40.22c0,3.04-2.46,5.5-5.5,5.5Z"/>
  <path class="st0" d="M44.32,470.13c-3.04,0-5.5-2.46-5.5-5.5v-102.93c0-3.04,2.46-5.5,5.5-5.5s5.5,2.46,5.5,5.5v102.93c0,3.04-2.46,5.5-5.5,5.5Z"/>
  <path class="st0" d="M360.57,271.94c-1.54,0-3.07-.64-4.16-1.89-1.99-2.29-1.75-5.77.55-7.76l32.59-28.28c2.29-1.99,5.77-1.75,7.76.55,1.99,2.29,1.75,5.77-.55,7.76l-32.59,28.28c-1.04.9-2.33,1.35-3.6,1.35Z"/>
  <path class="st0" d="M360.57,329.73c-1.36,0-2.72-.5-3.78-1.51l-46.11-43.65c-2.21-2.09-2.3-5.57-.21-7.78,2.09-2.21,5.57-2.3,7.78-.21l46.11,43.65c2.21,2.09,2.3,5.57.21,7.78-1.08,1.14-2.54,1.72-4,1.72Z"/>
  <path class="st0" d="M414.78,372.77h-112.61c-3.04,0-5.5-2.46-5.5-5.5s2.46-5.5,5.5-5.5h112.61c42.73,0,77.5-34.77,77.5-77.5,0-36.22-24.65-67.24-59.94-75.42-2.4-.56-4.14-2.64-4.25-5.1-1.78-38.3-33.18-68.3-71.49-68.3s-69.54,29.87-71.47,68c-.13,2.48-1.9,4.58-4.34,5.1-35.42,7.62-61.12,39.47-61.12,75.73,0,12.47,2.87,24.38,8.53,35.38,1.39,2.7.32,6.02-2.38,7.41-2.71,1.39-6.02.32-7.41-2.38-6.38-12.4-9.75-26.38-9.75-40.41,0-20.35,7.08-40.22,19.95-55.95,11.8-14.42,27.95-24.82,45.84-29.57,4.21-41.99,39.53-74.31,82.15-74.31s78.17,32.49,82.19,74.71c17.58,4.96,33.43,15.41,44.96,29.72,12.59,15.62,19.53,35.3,19.53,55.4,0,48.8-39.7,88.5-88.5,88.5Z"/>
  <path class="st0" d="M120.8,319.3c-34.14,0-61.91-27.77-61.91-61.91,0-31.24,23.64-57.47,54.44-61.21,10.11-23.57,33.44-39.18,59.12-39.18,11.69,0,23.15,3.16,33.13,9.14,2.61,1.56,3.45,4.94,1.89,7.54-1.56,2.61-4.94,3.45-7.54,1.89-8.27-4.96-17.77-7.58-27.47-7.58-22.25,0-42.38,14.16-50.09,35.23-.75,2.05-2.64,3.46-4.81,3.6-26.72,1.72-47.66,23.93-47.66,50.56,0,28.07,22.84,50.91,50.91,50.91,4.32,0,8.6-.54,12.74-1.62,2.94-.76,5.94,1,6.71,3.94.76,2.94-1,5.94-3.94,6.71-5.03,1.3-10.25,1.97-15.5,1.97Z"/>
  <path class="st0" d="M76.14,128.73H14.22c-3.04,0-5.5-2.46-5.5-5.5s2.46-5.5,5.5-5.5h61.92c3.04,0,5.5,2.46,5.5,5.5s-2.46,5.5-5.5,5.5Z"/>
  <path class="st0" d="M145.29,128.73h-28.98c-3.04,0-5.5-2.46-5.5-5.5s2.46-5.5,5.5-5.5h28.98c3.04,0,5.5,2.46,5.5,5.5s-2.46,5.5-5.5,5.5Z"/>
  <path class="st0" d="M409.21,70.7h-26.19c-3.04,0-5.5-2.46-5.5-5.5s2.46-5.5,5.5-5.5h26.19c3.04,0,5.5,2.46,5.5,5.5s-2.46,5.5-5.5,5.5Z"/>
  <path class="st0" d="M481.51,70.7h-26.19c-3.04,0-5.5-2.46-5.5-5.5s2.46-5.5,5.5-5.5h26.19c3.04,0,5.5,2.46,5.5,5.5s-2.46,5.5-5.5,5.5Z"/>
  <path class="st0" d="M340.76,70.7h-63.28c-2.79,0-5.14-2.09-5.46-4.87-.01-.09-1.59-11.89-10.57-17.41-6.61-4.06-15.92-3.99-27.66.21-1.57.56-3.31.38-4.74-.49-1.42-.87-2.37-2.35-2.58-4-.18-1.32-5.18-33.12-55.13-31.42-3.68.56-42.61,7.57-42.61,52.48,0,3.04-2.46,5.5-5.5,5.5H35.73c-3.04,0-5.5-2.46-5.5-5.5s2.46-5.5,5.5-5.5h82.19c1.67-25.66,14.87-39.91,26.06-47.45,12.83-8.65,25.63-10.4,26.17-10.47.17-.02.34-.04.51-.04,31.23-1.15,47.67,9.81,55.97,19.2,4.96,5.61,7.68,11.36,9.14,15.55,12.59-3.44,23.18-2.56,31.55,2.64,9.09,5.64,12.99,14.91,14.58,20.58h58.85c3.04,0,5.5,2.46,5.5,5.5s-2.46,5.5-5.5,5.5Z"/>
</svg>