<?xml version="1.0" encoding="UTF-8"?>
<svg id="Layer_1" xmlns="http://www.w3.org/2000/svg" version="1.1" viewBox="0 0 512 512">
  <!-- Generator: Adobe Illustrator 30.0.0, SVG Export Plug-In . SVG Version: 2.1.1 Build 123)  -->
  <defs>
    <style>
      .st0 {
        fill: #9f8151;
      }
    </style>
  </defs>
  <path class="st0" d="M328.85,494.19c-63.62,0-123.43-24.78-168.42-69.76s-69.76-104.8-69.76-168.42,24.78-123.44,69.76-168.42c44.99-44.99,104.8-69.76,168.42-69.76,68.25,0,133.34,29.36,178.56,80.55,2.01,2.28,1.8,5.75-.48,7.76-2.28,2.01-5.75,1.8-7.76-.48-43.14-48.83-105.22-76.83-170.32-76.83-125.27,0-227.18,101.92-227.18,227.19s101.92,227.18,227.18,227.18c65.71,0,128.17-28.44,171.37-78.03,2-2.29,5.47-2.53,7.76-.54,2.29,2,2.53,5.47.54,7.76-45.29,51.99-110.77,81.81-179.67,81.81Z"/>
  <path class="st0" d="M355.07,207.95H7.63c-3.04,0-5.5-2.46-5.5-5.5s2.46-5.5,5.5-5.5h347.43c3.04,0,5.5,2.46,5.5,5.5s-2.46,5.5-5.5,5.5Z"/>
  <path class="st0" d="M355.07,302.48H7.63c-3.04,0-5.5-2.46-5.5-5.5s2.46-5.5,5.5-5.5h347.43c3.04,0,5.5,2.46,5.5,5.5s-2.46,5.5-5.5,5.5Z"/>
</svg>