<?xml version="1.0" encoding="UTF-8"?>
<svg id="Layer_1" xmlns="http://www.w3.org/2000/svg" version="1.1" viewBox="0 0 512 512">
  <!-- Generator: Adobe Illustrator 30.0.0, SVG Export Plug-In . SVG Version: 2.1.1 Build 123)  -->
  <defs>
    <style>
      .st0 {
        fill: #9f8151;
      }
    </style>
  </defs>
  <path class="st0" d="M300.98,271.39c-3.4,0-6.67-1.87-8.29-5.1-13.11-26.05-45.08-36.81-71.27-23.98-4.54,2.22-10.08.36-12.36-4.16-13.11-26.05-45.08-36.81-71.27-23.98-4.54,2.22-10.08.36-12.36-4.16-13.11-26.05-45.08-36.81-71.27-23.98-2.21,1.08-4.7,1.24-7.03.46-2.35-.79-4.24-2.45-5.34-4.66-1.1-2.22-1.27-4.73-.48-7.08,12.06-35.85,37.36-64.86,71.24-81.68,32.59-16.18,69.67-19.23,104.41-8.58l.14.05,7.28,2.45c34.11,12.51,61.81,37.35,77.99,69.94,16.82,33.88,19.44,72.28,7.38,108.13-.78,2.33-2.42,4.22-4.62,5.33-1.33.67-2.75.99-4.15.99ZM244.73,225.9c22.35,0,43.99,11.63,55.82,31.83,9.69-31.96,6.88-65.85-8.04-95.9-14.91-30.04-40.43-52.93-71.85-64.48l-7-2.35c-32.01-9.8-66.18-6.98-96.22,7.93-30.04,14.92-52.77,40.22-64.37,71.54,30.31-12.52,65.79-.01,81.41,29.1,30.77-14.09,67.63-1.69,83.62,28.13,8.59-3.93,17.67-5.81,26.62-5.81ZM226.31,219.91c-.55,0-1.1-.08-1.65-.25-2.9-.91-4.51-4-3.6-6.9,7.77-24.73,12.08-49,12.13-68.35.03-11.51-1.5-20.94-4.43-27.28-1.27-2.76-.07-6.03,2.68-7.3,2.76-1.27,6.03-.07,7.3,2.68,3.65,7.9,5.48,18.64,5.45,31.93-.06,20.43-4.55,45.86-12.64,71.62-.74,2.35-2.91,3.85-5.25,3.85ZM138.81,191.06c-.62,0-1.25-.1-1.86-.33-2.86-1.03-4.34-4.18-3.32-7.04,4.81-13.38,10.59-26.29,16.71-37.34l9.62,5.33c-5.84,10.54-11.37,22.89-15.98,35.73-.81,2.24-2.92,3.64-5.18,3.64ZM166.72,133.47c-1.01,0-2.03-.28-2.95-.86-2.56-1.63-3.32-5.03-1.69-7.59,6.15-9.68,12.64-17.37,18.77-22.25,1.97-1.57,3.96-2.89,5.91-3.94,2.68-1.43,6.01-.43,7.45,2.25s.43,6.01-2.25,7.45c-1.37.73-2.8,1.69-4.25,2.85-5.18,4.13-10.83,10.89-16.34,19.55-1.05,1.65-2.83,2.55-4.65,2.55Z"/>
  <path class="st0" d="M129.59,378.68c-.5,0-1.01-.07-1.52-.21-2.92-.84-4.61-3.89-3.77-6.81l44.28-154.07c.84-2.92,3.88-4.6,6.81-3.77,2.92.84,4.61,3.89,3.77,6.81l-44.28,154.07c-.69,2.41-2.89,3.98-5.28,3.98Z"/>
  <path class="st0" d="M427,150.72c-14.81,0-28.68-5.71-39.05-16.09-10.38-10.38-16.09-24.24-16.09-39.05s5.71-28.68,16.09-39.05c10.38-10.38,24.24-16.09,39.05-16.09s28.68,5.71,39.05,16.09c10.38,10.38,16.09,24.24,16.09,39.05s-5.71,28.68-16.09,39.05c-10.38,10.38-24.24,16.09-39.05,16.09ZM427,51.44c-24.34,0-44.14,19.8-44.14,44.14s19.8,44.14,44.14,44.14,44.14-19.8,44.14-44.14-19.8-44.14-44.14-44.14Z"/>
  <path class="st0" d="M499.94,338.18H168.92c-3.04,0-5.5-2.46-5.5-5.5s2.46-5.5,5.5-5.5h331.03c3.04,0,5.5,2.46,5.5,5.5s-2.46,5.5-5.5,5.5Z"/>
  <path class="st0" d="M110.23,338.18H7.72c-3.04,0-5.5-2.46-5.5-5.5s2.46-5.5,5.5-5.5h102.51c3.04,0,5.5,2.46,5.5,5.5s-2.46,5.5-5.5,5.5Z"/>
  <path class="st0" d="M459.8,371.84h-100.46c-3.04,0-5.5-2.46-5.5-5.5s2.46-5.5,5.5-5.5h100.46c3.04,0,5.5,2.46,5.5,5.5s-2.46,5.5-5.5,5.5Z"/>
  <path class="st0" d="M309.1,405.33h-66.98c-3.04,0-5.5-2.46-5.5-5.5s2.46-5.5,5.5-5.5h66.98c3.04,0,5.5,2.46,5.5,5.5s-2.46,5.5-5.5,5.5Z"/>
  <path class="st0" d="M504.28,471.56c-2.44,0-4.68-1.64-5.32-4.12-4.39-16.89-26.11-35.64-52.82-45.59-35.57-13.24-72.59-9.38-101.58,10.61-29.43,20.3-54.87,29.14-77.76,27.01-20.14-1.86-34.81-11.68-47.75-20.35-1.24-.83-2.46-1.65-3.68-2.45-6.11-4.03-12.64-9.11-19.55-14.49-22.59-17.57-50.71-39.44-86.11-41.99-46.23-3.33-98.43,19.17-98.95,19.4-2.79,1.21-6.03-.06-7.24-2.84-1.21-2.78.06-6.03,2.84-7.24,2.23-.97,55.21-23.78,104.14-20.29,38.73,2.78,68.3,25.79,92.07,44.28,6.74,5.24,13.11,10.2,18.86,14,1.23.82,2.48,1.65,3.74,2.49,24.64,16.5,52.58,35.2,113.15-6.58,31.98-22.06,72.68-26.38,111.66-11.87,30.35,11.3,54.31,32.65,59.63,53.13.76,2.94-1,5.94-3.94,6.71-.46.12-.93.18-1.39.18Z"/>
</svg>