<?xml version="1.0" encoding="UTF-8"?>
<svg id="Layer_1" xmlns="http://www.w3.org/2000/svg" version="1.1" viewBox="0 0 512 512">
  <!-- Generator: Adobe Illustrator 30.0.0, SVG Export Plug-In . SVG Version: 2.1.1 Build 123)  -->
  <defs>
    <style>
      .st0 {
        fill: #9f8151;
      }
    </style>
  </defs>
  <path class="st0" d="M147.63,125.05h-69.88c-14.19,0-21.62-11.18-21.62-22.23s7.43-22.21,21.62-22.21h4.36c2.81-16.49,16.81-25.08,30.51-25.08,13.69,0,27.67,8.59,30.49,25.08h4.52c14.19,0,21.62,11.18,21.62,22.23s-7.43,22.21-21.62,22.21ZM77.75,91.9c-3.28,0-5.87,1.08-7.69,3.2-1.67,1.95-2.63,4.76-2.63,7.71,0,5.04,2.7,10.93,10.32,10.93h69.88c7.62,0,10.32-5.88,10.32-10.92s-2.7-10.93-10.32-10.93h-9.66c-3.08,0-5.6-2.47-5.65-5.56-.22-13.49-10.05-19.53-19.7-19.53-9.66,0-19.51,6.04-19.73,19.53-.05,3.08-2.56,5.56-5.65,5.56h-9.51Z"/>
  <path class="st0" d="M438.66,349.47c-3.12,0-5.65-2.53-5.65-5.65v-94.15c0-3.12,2.53-5.65,5.65-5.65s5.65,2.53,5.65,5.65v94.15c0,3.12-2.53,5.65-5.65,5.65Z"/>
  <path class="st0" d="M438.66,305.06c-24.02,0-46.4-11.9-59.87-31.83-1.75-2.59-1.07-6.1,1.52-7.84,2.59-1.75,6.09-1.07,7.84,1.52,11.36,16.82,30.24,26.86,50.51,26.86,9.89,0,19.7-2.42,28.39-7,2.92-1.54,5.75-3.34,8.39-5.35,2.49-1.88,6.03-1.4,7.91,1.09,1.88,2.49,1.4,6.03-1.09,7.91-3.13,2.37-6.47,4.5-9.94,6.33-10.3,5.44-21.94,8.31-33.66,8.31Z"/>
  <path class="st0" d="M500.11,264.11c-.73,0-1.46-.14-2.17-.44-2.88-1.2-4.24-4.51-3.04-7.39,3.1-7.42,4.67-15.31,4.67-23.43,0-33.58-27.32-60.91-60.91-60.91-27.38,0-51.54,18.42-58.76,44.8-.82,3.01-3.92,4.78-6.94,3.96-3.01-.82-4.78-3.93-3.96-6.94,8.55-31.27,37.2-53.11,69.65-53.11,39.81,0,72.2,32.39,72.2,72.2,0,9.63-1.86,18.98-5.54,27.78-.9,2.17-3,3.47-5.21,3.47Z"/>
  <path class="st0" d="M326.12,349.47c-3.12,0-5.65-2.53-5.65-5.65v-77.25c0-3.12,2.53-5.65,5.65-5.65s5.65,2.53,5.65,5.65v77.25c0,3.12-2.53,5.65-5.65,5.65Z"/>
  <path class="st0" d="M326.12,201.96c26.75,0,48.51,21.76,48.51,48.51s-21.76,48.51-48.51,48.51-48.51-21.76-48.51-48.51,21.76-48.51,48.51-48.51M326.12,190.66c-33.03,0-59.81,26.78-59.81,59.81s26.78,59.81,59.81,59.81,59.81-26.78,59.81-59.81-26.78-59.81-59.81-59.81h0Z"/>
  <path class="st0" d="M77.75,349.33c-3.12,0-5.65-2.53-5.65-5.65v-99.85c0-3.12,2.53-5.65,5.65-5.65s5.65,2.53,5.65,5.65v99.85c0,3.12-2.53,5.65-5.65,5.65Z"/>
  <path class="st0" d="M77.75,182.06c29.3,0,53.14,23.84,53.14,53.14s-23.84,53.14-53.14,53.14-53.14-23.84-53.14-53.14,23.84-53.14,53.14-53.14M77.75,170.76c-35.59,0-64.43,28.85-64.43,64.43s28.85,64.43,64.43,64.43,64.43-28.85,64.43-64.43-28.85-64.43-64.43-64.43h0Z"/>
  <path class="st0" d="M385.93,107.74c-21.33,0-38.68-17.35-38.68-38.68s17.35-38.68,38.68-38.68,38.68,17.35,38.68,38.68-17.35,38.68-38.68,38.68ZM385.93,41.67c-15.1,0-27.39,12.29-27.39,27.39s12.29,27.39,27.39,27.39,27.39-12.29,27.39-27.39-12.29-27.39-27.39-27.39Z"/>
  <g>
    <path class="st0" d="M498.81,350.74H6.79c-3.12,0-5.65-2.53-5.65-5.65s2.53-5.65,5.65-5.65h492.02c3.12,0,5.65,2.53,5.65,5.65s-2.53,5.65-5.65,5.65Z"/>
    <path class="st0" d="M449.6,383.77h-98.59c-3.12,0-5.65-2.53-5.65-5.65s2.53-5.65,5.65-5.65h98.59c3.12,0,5.65,2.53,5.65,5.65s-2.53,5.65-5.65,5.65Z"/>
    <path class="st0" d="M301.72,416.63h-65.72c-3.12,0-5.65-2.53-5.65-5.65s2.53-5.65,5.65-5.65h65.72c3.12,0,5.65,2.53,5.65,5.65s-2.53,5.65-5.65,5.65Z"/>
    <path class="st0" d="M493.25,481.63c-2.51,0-4.8-1.69-5.46-4.23-4.29-16.5-25.54-34.83-51.68-44.56-34.82-12.97-71.07-9.18-99.44,10.39-28.93,19.95-53.95,28.63-76.48,26.55-19.82-1.83-34.25-11.49-46.98-20.01-1.22-.81-2.42-1.62-3.61-2.41-6-3.96-12.41-8.95-19.2-14.23-22.14-17.22-49.7-38.66-84.36-41.15-45.24-3.24-96.47,18.79-96.99,19.02-2.86,1.25-6.19-.06-7.43-2.92-1.25-2.86.06-6.19,2.92-7.43,2.19-.96,54.25-23.37,102.31-19.93,38.08,2.74,67.14,25.34,90.49,43.5,6.61,5.14,12.86,10,18.49,13.72,1.21.8,2.43,1.62,3.67,2.44,24.12,16.15,51.46,34.45,110.76-6.45,31.45-21.69,71.47-25.95,109.8-11.68,29.86,11.12,53.44,32.14,58.67,52.31.78,3.02-1.03,6.1-4.05,6.89-.48.12-.95.18-1.42.18Z"/>
  </g>
  <path class="st0" d="M204.53,233.51c-.53,0-1.06-.1-1.57-.31-1.94-.8-2.96-2.93-2.37-4.95.5-1.73,1.09-3.37,1.75-4.91.64-2.78.98-6.72-.46-10.91-2.34-6.83-8.65-12.58-18.74-17.09-2.07-.93-3-3.36-2.07-5.43.93-2.07,3.36-3,5.43-2.07,12.33,5.51,20.14,12.94,23.21,22.09.23.68.43,1.36.59,2.03,1.65-1.48,3.47-2.76,5.45-3.83,12.64-6.84,27.18-2.56,27.79-2.37,2.17.66,3.4,2.95,2.74,5.12-.66,2.17-2.95,3.39-5.12,2.74-.2-.06-12-3.45-21.55,1.76-4.1,2.23-7.27,5.8-9.47,10.64-.83,3.18-1.91,5.18-2.01,5.36-.74,1.35-2.14,2.13-3.6,2.13Z"/>
  <path class="st0" d="M278.46,106.89c-1.16,0-2.3-.49-3.11-1.42-1.18-1.36-2.23-2.74-3.17-4.14-1.99-2.05-5.1-4.48-9.4-5.55-7-1.75-15.26.42-24.54,6.43-1.91,1.23-4.45.69-5.68-1.21-1.23-1.9-.69-4.45,1.21-5.68,11.33-7.35,21.82-9.86,31.16-7.47.7.18,1.37.38,2.03.6-.34-2.19-.43-4.41-.25-6.65,1.13-14.33,12.64-24.2,13.12-24.61,1.73-1.47,4.33-1.24,5.79.49,1.46,1.73,1.25,4.32-.48,5.78h0c-.09.08-9.42,8.16-10.25,19.04-.35,4.66.91,9.26,3.78,13.73,2.21,2.42,3.31,4.42,3.41,4.6.99,1.85.44,4.14-1.29,5.33-.71.49-1.52.72-2.33.72Z"/>
</svg>