<?xml version="1.0" encoding="UTF-8"?>
<svg id="Layer_1" xmlns="http://www.w3.org/2000/svg" version="1.1" viewBox="0 0 512 512">
  <!-- Generator: Adobe Illustrator 30.0.0, SVG Export Plug-In . SVG Version: 2.1.1 Build 123)  -->
  <defs>
    <style>
      .st0 {
        fill: #9f8151;
      }
    </style>
  </defs>
  <path class="st0" d="M142.29,509.42c-3.04,0-5.54-2.43-5.61-5.49-1.1-47.02-1.32-137.41-.56-230.28.69-84.01,12.29-143.53,36.53-187.3C200.84,35.43,245.84,7.43,310.21.77c42.98-4.45,86.11,10.34,124.72,42.77,28.94,24.3,45,49.59,45.66,50.66,1.65,2.63.86,6.09-1.77,7.74-2.62,1.65-6.09.86-7.74-1.76h0c-.16-.25-15.96-25.07-43.63-48.25-36.67-30.71-75.73-44.16-116.09-39.99-60.44,6.25-102.61,32.37-128.89,79.85-22.97,41.49-34.46,101.01-35.12,181.95-.76,92.76-.54,183.01.56,229.92.07,3.1-2.38,5.67-5.48,5.75-.04,0-.09,0-.13,0Z"/>
  <path class="st0" d="M378.93,284.34H38.21c-3.1,0-5.62-2.52-5.62-5.62s2.52-5.62,5.62-5.62h340.72c3.1,0,5.62,2.52,5.62,5.62s-2.52,5.62-5.62,5.62Z"/>
  <path class="st0" d="M462.8,512H38.21c-4.23,0-7.66-3.43-7.66-7.66s3.43-7.66,7.66-7.66h424.59c4.23,0,7.66,3.43,7.66,7.66s-3.43,7.66-7.66,7.66Z"/>
</svg>