<?xml version="1.0" encoding="UTF-8"?>
<svg id="Layer_1" xmlns="http://www.w3.org/2000/svg" version="1.1" viewBox="0 0 512 512">
  <!-- Generator: Adobe Illustrator 30.0.0, SVG Export Plug-In . SVG Version: 2.1.1 Build 123)  -->
  <defs>
    <style>
      .st0 {
        font-family: Montserrat-SemiBold, Montserrat;
        font-size: 87.24px;
        font-weight: 600;
      }

      .st0, .st1 {
        fill: #9f8151;
      }
    </style>
  </defs>
  <path class="st1" d="M469.97,147.5c-.36,0-.72-.03-1.08-.1-3.2-.59-5.31-3.67-4.72-6.87l6.46-34.76-34.83,6.06c-3.2.56-6.26-1.59-6.81-4.8-.56-3.21,1.59-6.26,4.8-6.81l36.99-6.44c3.3-.57,6.69.51,9.05,2.9,2.36,2.39,3.41,5.79,2.79,9.09l-6.86,36.92c-.53,2.84-3,4.82-5.79,4.82Z"/>
  <g>
    <path class="st1" d="M255.99,433.48c-63.17,0-118.69-18.49-165.02-54.95-2.56-2.01-3-5.72-.99-8.27,2.01-2.56,5.72-3,8.27-.99,44.2,34.79,97.27,52.43,157.73,52.43,75.92,0,139.4-27.34,188.69-81.26,35.58-38.92,50.59-78.37,52.19-82.74-1.67-3.52-22.43-46.32-63.17-86.92-2.31-2.3-2.31-6.03-.01-8.33,2.3-2.3,6.03-2.31,8.33-.01,33.7,33.58,53.87,67.92,61.84,82.97l.13-.13,3.67,7.49c1.25,2.62,1.43,5.6.5,8.41l-.04.11c-2.5,7.04-63.18,172.2-252.11,172.2Z"/>
    <path class="st1" d="M63.19,350.55c-1.59,0-3.18-.64-4.35-1.91C19.33,305.53,3.99,261.6,3.85,261.17c-.89-2.66-.74-5.58.41-8.22.81-1.79,79.38-171.33,251.74-171.33,55.55,0,107.14,17.61,153.35,52.34,2.6,1.96,3.13,5.65,1.17,8.25-1.96,2.6-5.65,3.13-8.25,1.17-44.12-33.16-93.33-49.98-146.27-49.98-162.41,0-238.4,158.83-240.91,164.2,1.02,2.86,15.72,42.99,52.45,83.07,2.2,2.4,2.04,6.13-.36,8.32-1.13,1.04-2.56,1.55-3.98,1.55Z"/>
  </g>
  <text class="st0" transform="translate(228.64 292.85)"><tspan x="0" y="0">$</tspan></text>
  <path class="st1" d="M133.76,284.25c-2.82,0-5.32-2.03-5.8-4.91-1.21-7.15-1.82-14.48-1.82-21.79,0-71.61,58.26-129.87,129.87-129.87,42.56,0,82.48,20.9,106.77,55.92,1.85,2.67,1.19,6.34-1.48,8.2-2.67,1.85-6.34,1.19-8.2-1.48-22.09-31.84-58.39-50.85-97.09-50.85-65.11,0-118.08,52.97-118.08,118.08,0,6.65.56,13.32,1.66,19.83.54,3.21-1.62,6.25-4.83,6.79-.33.06-.66.08-.99.08Z"/>
  <path class="st1" d="M256,387.42c-44.23,0-85-22.19-109.08-59.36-1.77-2.73-.99-6.38,1.74-8.15,2.73-1.77,6.38-.99,8.15,1.74,21.89,33.8,58.97,53.98,99.19,53.98,65.11,0,118.08-52.97,118.08-118.08,0-10.88-1.48-21.65-4.39-32.02-.88-3.13.95-6.39,4.08-7.27,3.14-.88,6.39.95,7.27,4.08,3.21,11.41,4.83,23.25,4.83,35.21,0,71.61-58.26,129.87-129.87,129.87Z"/>
  <path class="st1" d="M256,321.95c-35.51,0-64.39-28.89-64.39-64.39s28.89-64.39,64.39-64.39,64.39,28.89,64.39,64.39-28.89,64.39-64.39,64.39ZM256,204.94c-29.01,0-52.61,23.6-52.61,52.61s23.6,52.61,52.61,52.61,52.61-23.6,52.61-52.61-23.6-52.61-52.61-52.61Z"/>
  <path class="st1" d="M261.42,66.29c-3.25,0-5.89-2.64-5.89-5.89V5.55c0-3.25,2.64-5.89,5.89-5.89s5.89,2.64,5.89,5.89v54.85c0,3.25-2.64,5.89-5.89,5.89Z"/>
  <path class="st1" d="M346.11,76.33c-1.12,0-2.26-.32-3.26-.99-2.71-1.8-3.44-5.46-1.64-8.17l28.03-42.07c1.8-2.71,5.46-3.44,8.17-1.64,2.71,1.8,3.44,5.46,1.64,8.17l-28.03,42.07c-1.14,1.7-3,2.63-4.91,2.63Z"/>
  <path class="st1" d="M176.68,76.33c-1.9,0-3.77-.92-4.91-2.63l-28.03-42.07c-1.8-2.71-1.07-6.37,1.64-8.17,2.71-1.8,6.37-1.07,8.17,1.64l28.03,42.07c1.8,2.71,1.07,6.37-1.64,8.17-1,.67-2.14.99-3.26.99Z"/>
  <path class="st1" d="M148.7,489.53c-1.12,0-2.25-.32-3.26-.99-2.71-1.8-3.45-5.46-1.64-8.17l27.97-42.07c1.8-2.71,5.46-3.45,8.17-1.64,2.71,1.8,3.45,5.46,1.64,8.17l-27.97,42.07c-1.14,1.71-3.01,2.63-4.91,2.63Z"/>
  <path class="st1" d="M261.42,512.34c-3.25,0-5.89-2.64-5.89-5.89v-54.85c0-3.25,2.64-5.89,5.89-5.89s5.89,2.64,5.89,5.89v54.85c0,3.25-2.64,5.89-5.89,5.89Z"/>
  <path class="st1" d="M374.09,489.53c-1.91,0-3.78-.92-4.91-2.63l-27.97-42.07c-1.8-2.71-1.07-6.37,1.64-8.17,2.71-1.8,6.37-1.07,8.17,1.64l27.97,42.07c1.8,2.71,1.07,6.37-1.64,8.17-1,.67-2.14.99-3.26.99Z"/>
  <path class="st1" d="M29.5,414.3c-1.6,0-3.19-.65-4.35-1.92-2.19-2.4-2.02-6.13.38-8.32l131.26-119.82c1.2-1.09,2.8-1.64,4.41-1.53,1.62.12,3.11.9,4.14,2.16l19.39,23.85,21.76-19.02c2.45-2.14,6.17-1.89,8.31.56,2.14,2.45,1.89,6.17-.56,8.31l-26.36,23.04c-1.2,1.05-2.78,1.57-4.38,1.43-1.59-.14-3.06-.91-4.07-2.15l-19.31-23.75-126.65,115.61c-1.13,1.03-2.55,1.54-3.97,1.54Z"/>
  <path class="st1" d="M346.11,227.2c-1.45,0-2.91-.54-4.04-1.6l-27.45-25.85-14.77,14.77c-2.3,2.3-6.03,2.3-8.33,0-2.3-2.3-2.3-6.03,0-8.33l18.81-18.81c2.25-2.25,5.89-2.31,8.21-.12l27.63,26.03,100.13-91.48c2.4-2.19,6.13-2.03,8.32.38,2.19,2.4,2.03,6.13-.38,8.32l-104.17,95.17c-1.13,1.03-2.55,1.54-3.97,1.54Z"/>
</svg>