<?xml version="1.0" encoding="UTF-8"?>
<svg id="Layer_1" xmlns="http://www.w3.org/2000/svg" version="1.1" viewBox="0 0 512 512">
  <!-- Generator: Adobe Illustrator 30.0.0, SVG Export Plug-In . SVG Version: 2.1.1 Build 123)  -->
  <defs>
    <style>
      .st0 {
        fill: #9f8151;
      }
    </style>
  </defs>
  <path class="st0" d="M478.54,13.81H14.07c-3.04,0-5.5-2.46-5.5-5.5s2.46-5.5,5.5-5.5h464.47c3.04,0,5.5,2.46,5.5,5.5s-2.46,5.5-5.5,5.5Z"/>
  <path class="st0" d="M478.54,114.1H14.07c-3.04,0-5.5-2.46-5.5-5.5s2.46-5.5,5.5-5.5h464.47c3.04,0,5.5,2.46,5.5,5.5s-2.46,5.5-5.5,5.5Z"/>
  <path class="st0" d="M393.23,511.5c-1.79,0-3.54-.87-4.6-2.48l-132.93-201.84c-1.67-2.54-.97-5.95,1.57-7.62s5.95-.97,7.62,1.57l132.93,201.84c1.67,2.54.97,5.95-1.57,7.62-.93.61-1.98.91-3.02.91Z"/>
  <path class="st0" d="M97.29,314.14c-2.99,0-5.44-2.39-5.5-5.39-.06-3.04,2.35-5.55,5.39-5.61l132.97-2.65c84.07,0,152.46-63.41,152.46-141.34,0-42.36-13.15-77.92-38.03-102.85-28.09-28.14-69.89-42.42-124.22-42.42-.07,0-.17,0-.21,0-3.04,0-5.5-2.46-5.5-5.5,0-3.04,2.46-5.5,5.5-5.5h.21c57.36,0,101.77,15.35,132,45.65,26.98,27.03,41.24,65.28,41.24,110.62,0,40.35-17.05,78.51-48.01,107.44-30.97,28.94-71.95,44.89-115.39,44.9l-132.8,2.65s-.07,0-.11,0Z"/>
</svg>