<?xml version="1.0" encoding="UTF-8"?>
<svg id="Layer_1" xmlns="http://www.w3.org/2000/svg" version="1.1" viewBox="0 0 512 512">
  <!-- Generator: Adobe Illustrator 30.0.0, SVG Export Plug-In . SVG Version: 2.1.1 Build 123)  -->
  <defs>
    <style>
      .st0 {
        stroke: #9f8151;
        stroke-linecap: round;
        stroke-linejoin: round;
        stroke-width: 11px;
      }

      .st0, .st1 {
        fill: #fff;
      }
    </style>
  </defs>
  <path class="st1" d="M250.44,508.5c-1.24,0-2.48-.42-3.5-1.26-75.5-62.3-158.36-136.44-186.1-227.98-11.91-39.29-11.57-84.61.93-127.6,12.63-43.41,36.9-81.52,68.35-107.32C163.65,16.82,206.38,1.67,250.43,1.67s86.77,15.15,120.32,42.67c32.56,26.71,57.11,66.82,69.15,112.96,11.83,45.35,10.75,92.67-3.05,133.23-13.82,40.62-38.84,80.05-76.5,120.56-33.6,36.14-72.29,68.02-106.42,96.16-1.02.84-2.26,1.26-3.5,1.26ZM250.43,12.67c-41.51,0-81.76,14.27-113.34,40.18-29.75,24.41-52.75,60.59-64.76,101.89h0c-11.92,40.97-12.26,84.06-.97,121.34,26.43,87.22,105.78,159.12,179.08,219.8,69.12-56.99,146.34-121.67,176-208.89,13.11-38.55,14.11-83.62,2.82-126.91-11.45-43.91-34.71-81.99-65.48-107.23-31.59-25.91-71.84-40.18-113.35-40.18ZM67.05,153.19h0,0Z"/>
  <path class="st0" d="M250.1,255.08"/>
  <path class="st1" d="M250.1,280.28c-54.29,0-98.46-44.17-98.46-98.46s44.17-98.46,98.46-98.46,98.46,44.17,98.46,98.46-44.17,98.46-98.46,98.46ZM250.1,94.35c-48.23,0-87.46,39.23-87.46,87.46s39.23,87.46,87.46,87.46,87.46-39.23,87.46-87.46-39.23-87.46-87.46-87.46Z"/>
</svg>