<?xml version="1.0" encoding="UTF-8"?>
<svg id="Layer_1" xmlns="http://www.w3.org/2000/svg" version="1.1" viewBox="0 0 512 512">
  <!-- Generator: Adobe Illustrator 30.0.0, SVG Export Plug-In . SVG Version: 2.1.1 Build 123)  -->
  <defs>
    <style>
      .st0 {
        fill: #9f8151;
      }
    </style>
  </defs>
  <path class="st0" d="M298.39,506.75c-1.16,0-2.3-.36-3.26-1.07-1.54-1.14-2.38-2.99-2.22-4.9.09-1.06,2.36-26.3,14.1-63.2,10.81-33.99,32.07-84.61,71.96-132.74,1.94-2.34,5.41-2.66,7.74-.72s2.66,5.41.72,7.74c-38.66,46.65-59.32,95.75-69.84,128.72-7.31,22.91-10.88,41.42-12.5,51.86,143.01-62.85,220.86-216.18,187.11-368.56-7.02,2.4-14,5.06-20.81,7.93-76.31,31.93-137.08,90.94-171.17,166.18-19.83,43.71-29.92,92.18-29.16,140.17.05,3.04-2.38,5.54-5.41,5.59-.03,0-.06,0-.09,0-3,0-5.45-2.41-5.5-5.41-.78-49.61,9.64-99.71,30.14-144.89,35.25-77.78,98.06-138.77,176.88-171.75,8.99-3.78,18.21-7.2,27.44-10.17,1.46-.47,3.04-.31,4.38.44,1.33.75,2.3,2.02,2.65,3.51,18.5,76.98,9.05,158.56-26.61,229.72-36.05,71.94-96.84,128.68-171.17,159.78-.02,0-.09.04-.11.04-1.02.43-2.11.88-3.19,1.32-.67.27-1.38.41-2.08.41Z"/>
  <path class="st0" d="M168.5,206.96c-.2,0-.41-.01-.62-.04-3.02-.34-5.19-3.06-4.86-6.08,8.11-72.83,38.28-139.84,87.25-193.79,1.04-1.15,2.52-1.8,4.07-1.8h.07c1.58.02,3.07.72,4.1,1.91,4.79,5.55,9.47,11.34,13.93,17.19,39.06,51.33,62.93,112.19,69.02,176.01.29,3.02-1.93,5.71-4.95,6-3,.31-5.71-1.93-6-4.95-5.9-61.77-29.01-120.7-66.83-170.39-3.05-4.01-6.21-7.99-9.44-11.88-44.94,51.4-72.66,114.51-80.29,182.93-.31,2.81-2.69,4.89-5.46,4.89Z"/>
  <path class="st0" d="M210.32,505.42c-.75,0-1.5-.15-2.22-.47-74.27-31.18-135.01-87.93-171.05-159.8C1.38,273.99-8.06,192.42,10.48,115.48c.36-1.49,1.32-2.76,2.66-3.51,1.34-.75,2.92-.91,4.38-.44,9.2,2.97,18.37,6.38,27.27,10.13.07.03.13.06.2.09.99.46,24.53,11.62,56.73,37.39,29.62,23.7,72.38,64.77,107.9,125.85,30.15,51.85,41.29,101.83,33.09,148.52h0c-7.73,44.06-27.28,68.82-28.11,69.85-1.07,1.33-2.66,2.06-4.29,2.06ZM19.82,123.9c-33.92,152.74,44.57,306.6,188.59,369.22,5.25-7.87,17.82-29.3,23.47-61.51h0c7.74-44.07-2.95-91.54-31.77-141.09-34.58-59.46-76.16-99.46-104.96-122.54-30.28-24.28-53.17-35.46-54.76-36.22-6.74-2.84-13.64-5.47-20.58-7.86Z"/>
  <path class="st0" d="M283.2,122.27c-2.53,0-4.81-1.75-5.37-4.33-7.11-32.56-29.78-63.42-30.01-63.73-1.81-2.44-1.3-5.88,1.14-7.69,2.44-1.81,5.88-1.3,7.69,1.14.99,1.33,24.3,33.02,31.92,67.94.65,2.97-1.23,5.9-4.2,6.55-.4.09-.79.13-1.18.13Z"/>
  <path class="st0" d="M201.11,453.46c-2.55,0-4.84-1.79-5.38-4.39-.09-.44-6.69-31.58-26.92-75.03-18.68-40.12-53.14-99.26-111.25-153.17-2.23-2.07-2.36-5.55-.29-7.77,2.07-2.23,5.54-2.36,7.77-.29,59.53,55.23,94.79,115.83,113.9,156.93,20.74,44.63,27.3,75.81,27.57,77.11.61,2.97-1.3,5.88-4.28,6.5-.37.08-.75.11-1.12.11Z"/>
</svg>