<?xml version="1.0" encoding="UTF-8"?>
<svg id="Layer_1" xmlns="http://www.w3.org/2000/svg" version="1.1" viewBox="0 0 512 512">
  <defs>
    <style>
      .st0 {
        fill: #ffffff; /* changed to white */
      }
    </style>
  </defs>
  <path class="st0" d="M256,344.03c-78.3,0-141.99-63.7-141.99-141.99S177.7,60.04,256,60.04s141.99,63.7,141.99,141.99c0,3.03-2.46,5.49-5.49,5.49s-5.49-2.46-5.49-5.49c0-72.25-58.78-131.02-131.02-131.02s-131.02,58.78-131.02,131.02,58.78,131.02,131.02,131.02c3.03,0,5.49,2.46,5.49,5.49s-2.46,5.49-5.49,5.49Z"/>
  <path class="st0" d="M256.34,513.3c-1.24,0-2.48-.42-3.49-1.25-76.47-63.11-160.42-138.21-188.51-230.93-12.06-39.79-11.72-85.68.95-129.22,12.79-43.96,37.37-82.56,69.22-108.68C168.46,15.35,211.74,0,256.34,0s87.87,15.35,121.84,43.21c32.97,27.04,57.84,67.67,70.02,114.39,11.99,45.93,10.89,93.85-3.09,134.92-13.99,41.14-39.34,81.08-77.48,122.11-34.03,36.61-73.23,68.91-107.81,97.41-1.01.83-2.25,1.25-3.49,1.25ZM256.34,10.97c-42.08,0-82.88,14.46-114.88,40.72-30.15,24.74-53.47,61.41-65.64,103.26h0c-12.08,41.52-12.43,85.2-.98,122.98,26.79,88.41,107.23,161.28,181.51,222.77,70.05-57.75,148.32-123.3,178.39-211.71,13.29-39.07,14.31-84.74,2.86-128.62-11.61-44.5-35.18-83.09-66.37-108.68-32.01-26.26-72.82-40.72-114.89-40.72ZM70.55,153.42h0,0Z"/>
  <path class="st0" d="M337.08,332.32h-10.64c-3.19,0-5.79-2.6-5.79-5.79,0-3.96-2.19-7.24-5.85-8.75-3.59-1.49-7.58-.69-10.33,2.05-2.25,2.25-5.91,2.26-8.17.02l-7.54-7.54c-1.09-1.09-1.7-2.55-1.7-4.09s.6-3,1.7-4.09c2.8-2.8,3.56-6.66,2.05-10.32-1.52-3.67-4.79-5.85-8.75-5.85-3.17,0-5.77-2.58-5.79-5.76v-10.67c0-3.19,2.6-5.79,5.79-5.79,3.96,0,7.23-2.19,8.75-5.85,1.52-3.67.75-7.53-2.05-10.32-2.25-2.25-2.26-5.92,0-8.18l7.53-7.53c2.28-2.25,5.94-2.24,8.18,0,2.81,2.81,6.67,3.57,10.33,2.05,3.67-1.52,5.85-4.79,5.85-8.75,0-3.19,2.6-5.79,5.79-5.79h10.64c3.19,0,5.79,2.6,5.79,5.79,0,3.96,2.19,7.23,5.85,8.75,3.67,1.52,7.53.75,10.33-2.05,2.26-2.25,5.92-2.25,8.17-.02l7.54,7.54c1.09,1.08,1.7,2.54,1.7,4.09s-.61,3.02-1.71,4.11c-2.78,2.78-3.55,6.64-2.03,10.31,1.52,3.67,4.79,5.85,8.75,5.85,3.19,0,5.79,2.6,5.79,5.79v10.64c0,3.19-2.6,5.79-5.79,5.79-3.96,0-7.23,2.19-8.75,5.85-1.52,3.66-.75,7.52,2.05,10.32,1.09,1.09,1.7,2.55,1.7,4.09s-.6,3-1.7,4.09l-7.52,7.52c-2.26,2.26-5.93,2.26-8.19,0-2.8-2.8-6.66-3.56-10.32-2.05-3.67,1.52-5.85,4.79-5.85,8.75,0,3.19-2.6,5.79-5.79,5.79ZM330.99,321.35h1.55c1.55-6.13,5.86-11.16,11.99-13.7,6.13-2.54,12.73-2.03,18.17,1.21l1.1-1.1c-3.24-5.44-3.75-12.03-1.21-18.17,2.54-6.13,7.57-10.44,13.7-11.99v-1.55c-6.13-1.55-11.16-5.86-13.7-11.99-2.54-6.13-2.03-12.73,1.21-18.17l-1.09-1.09c-5.43,3.24-12.03,3.75-18.17,1.21-6.13-2.54-10.44-7.57-11.99-13.7h-1.55c-1.55,6.13-5.86,11.16-11.99,13.7-6.14,2.54-12.73,2.03-18.17-1.21l-1.1,1.1c3.24,5.43,3.75,12.03,1.21,18.17-2.54,6.13-7.57,10.44-13.7,11.99v1.55c6.13,1.55,11.16,5.86,13.7,11.99,2.54,6.13,2.03,12.73-1.21,18.17l1.1,1.1c3.1-1.84,6.61-2.82,10.25-2.82,2.7,0,5.37.54,7.92,1.6,6.13,2.54,10.43,7.57,11.99,13.71ZM366.99,249.1s.02.02.03.03l-.03-.03ZM367,241.78s-.02.02-.04.04c.01-.01.03-.02.04-.04Z"/>
  <path class="st0" d="M234.88,228.79c-4.29,0-8.32-1.67-11.36-4.7l-24.58-24.58c-2.14-2.14-2.14-5.62,0-7.76,2.14-2.14,5.62-2.14,7.76,0l24.58,24.58c.96.96,2.24,1.49,3.6,1.49s2.64-.53,3.6-1.49l66.82-66.82c2.14-2.14,5.62-2.14,7.76,0,2.14,2.14,2.14,5.62,0,7.76l-66.82,66.82c-3.03,3.03-7.07,4.7-11.36,4.7Z"/>
</svg>