<?xml version="1.0" encoding="UTF-8"?>
<svg id="Layer_1" xmlns="http://www.w3.org/2000/svg" version="1.1" viewBox="0 0 512 512">
  <!-- Generator: Adobe Illustrator 30.0.0, SVG Export Plug-In . SVG Version: 2.1.1 Build 123)  -->
  <defs>
    <style>
      .st0 {
        fill: #9f8151;
      }
    </style>
  </defs>
  <path class="st0" d="M467.86,470.72H58.89c-3.04,0-5.5-2.46-5.5-5.5s2.46-5.5,5.5-5.5h403.47V59.22c0-3.04,2.46-5.5,5.5-5.5s5.5,2.46,5.5,5.5v406c0,3.04-2.46,5.5-5.5,5.5Z"/>
  <path class="st0" d="M420.95,426.77H73.58c-3.04,0-5.5-2.46-5.5-5.5V73.9c0-3.04,2.46-5.5,5.5-5.5h347.37c3.04,0,5.5,2.46,5.5,5.5v347.37c0,3.04-2.46,5.5-5.5,5.5ZM79.08,415.77h336.37V79.4H79.08v336.37Z"/>
  <g>
    <path class="st0" d="M209.71,385.76c-1.47,0-2.93-.58-4.01-1.74l-97.84-104.28c-2.08-2.22-1.97-5.7.25-7.77,2.22-2.08,5.7-1.97,7.77.25l97.84,104.28c2.08,2.22,1.97,5.7-.25,7.77-1.06,1-2.41,1.49-3.76,1.49Z"/>
    <path class="st0" d="M288.24,394.77c-1.43,0-2.87-.56-3.95-1.67L107.92,211.58c-2.12-2.18-2.07-5.66.11-7.78,2.18-2.12,5.66-2.07,7.78.11l176.37,181.52c2.12,2.18,2.07,5.66-.11,7.78-1.07,1.04-2.45,1.56-3.83,1.56Z"/>
    <path class="st0" d="M364.19,394.77c-1.42,0-2.84-.55-3.92-1.64L107.95,136.94c-2.13-2.16-2.1-5.65.06-7.78,2.16-2.13,5.64-2.1,7.78.06l252.33,256.19c2.13,2.16,2.1,5.65-.06,7.78-1.07,1.05-2.47,1.58-3.86,1.58Z"/>
    <path class="st0" d="M388.65,343.27c-1.41,0-2.82-.54-3.89-1.61L156.9,113.8c-2.15-2.15-2.15-5.63,0-7.78,2.15-2.15,5.63-2.15,7.78,0l227.86,227.87c2.15,2.15,2.15,5.63,0,7.78-1.07,1.07-2.48,1.61-3.89,1.61Z"/>
    <path class="st0" d="M388.65,272.47c-1.45,0-2.89-.57-3.97-1.69L234.06,113.71c-2.1-2.19-2.03-5.67.16-7.78,2.19-2.1,5.67-2.03,7.78.16l150.62,157.06c2.1,2.19,2.03,5.67-.16,7.78-1.07,1.02-2.44,1.53-3.81,1.53Z"/>
    <path class="st0" d="M388.65,193.94c-1.45,0-2.89-.57-3.97-1.69l-75.31-78.53c-2.1-2.19-2.03-5.67.16-7.78,2.19-2.1,5.67-2.03,7.78.16l75.31,78.53c2.1,2.19,2.03,5.67-.16,7.78-1.07,1.02-2.44,1.53-3.81,1.53Z"/>
  </g>
  <path class="st0" d="M495.76,65.54c-1.74,0-3.45-.82-4.52-2.36l-23.38-33.65-23.38,33.65c-1.73,2.49-5.16,3.11-7.66,1.38-2.49-1.73-3.11-5.16-1.38-7.66l23.9-34.39c1.94-2.79,5.12-4.45,8.52-4.45h0c3.4,0,6.58,1.67,8.52,4.45l23.9,34.39c1.73,2.49,1.12,5.92-1.38,7.66-.96.67-2.05.98-3.13.98Z"/>
  <path class="st0" d="M57.06,498.62c-1.08,0-2.18-.32-3.13-.98l-34.39-23.9c-2.79-1.94-4.45-5.12-4.45-8.52s1.67-6.58,4.45-8.52l34.39-23.9c2.49-1.73,5.92-1.12,7.66,1.38,1.73,2.49,1.12,5.92-1.38,7.66l-33.64,23.38,33.64,23.38c2.49,1.73,3.11,5.16,1.38,7.66-1.07,1.54-2.78,2.36-4.52,2.36Z"/>
</svg>