<?xml version="1.0" encoding="UTF-8"?>
<svg id="Layer_1" xmlns="http://www.w3.org/2000/svg" version="1.1" viewBox="0 0 512 512">
  <!-- Generator: Adobe Illustrator 30.0.0, SVG Export Plug-In . SVG Version: 2.1.1 Build 123)  -->
  <defs>
    <style>
      .st0 {
        fill: #9f8151;
      }
    </style>
  </defs>
  <path class="st0" d="M229.24,497.69c-11.2,0-22.47-.93-33.51-2.76-53.51-8.84-100.37-37.98-131.96-82.06-31.59-44.09-44.11-97.83-35.27-151.33.5-3,3.33-5.02,6.32-4.53,3,.5,5.03,3.33,4.53,6.32-8.36,50.6,3.49,101.43,33.36,143.13,29.88,41.69,74.2,69.25,124.81,77.61,10.45,1.73,21.12,2.61,31.71,2.61,40.05,0,78.58-12.44,111.42-35.98,41.7-29.88,69.27-74.2,77.62-124.8,6.08-36.79,1.47-74.1-13.33-107.92l-2.5-5.72,5.98-1.76c7.3-2.15,18.6-6.02,31.01-12.21,26.01-12.99,44.1-30.15,52.34-49.64,8.24-19.49,7.94-44.43-.88-72.13-6.62-20.83-15.55-35.67-15.93-36.29-.28-.46-1.01-.77-1.54-.64-.7.16-17.52,4.08-37.12,13.87-26.01,12.98-44.11,30.15-52.34,49.64-6.78,16.04-7.76,36.19-2.86,58.29l4.55,20.52-14.02-15.66c-10.64-11.89-22.71-22.39-35.87-31.21l-1.19-.8-.65-1.28c-3.84-7.58-14.59-27.46-31.43-48.17-1.92-2.36-1.56-5.82.8-7.74,2.36-1.92,5.82-1.56,7.74.8,16.64,20.46,27.57,40.17,32.05,48.86,8.65,5.89,16.85,12.47,24.5,19.67-1.66-17.62.44-33.82,6.24-47.56,9.27-21.94,29.18-41.03,57.56-55.2,20.76-10.37,38.82-14.57,39.57-14.75,5.15-1.18,10.66,1.15,13.4,5.66.41.67,9.99,16.6,17,38.67,9.62,30.23,9.81,57.81.53,79.75-9.27,21.94-29.17,41.02-57.56,55.2-10.16,5.07-19.62,8.67-26.96,11.09,13.76,34.25,17.82,71.62,11.74,108.47-8.83,53.5-37.98,100.36-82.07,131.95-34.72,24.88-75.47,38.04-117.83,38.04ZM168.71,448.39c-.69,0-1.39-.13-2.07-.4-30.46-12.36-56.34-33.32-74.86-60.62-18.96-27.96-28.78-60.65-28.41-94.54.22-20.61,4.15-40.64,11.69-59.53,8.54-21.43,21.34-40.58,38.04-56.92,1.56-1.53,3.16-3.03,4.79-4.5-9.92-8.67-19.51-18.83-28.58-30.27-17.53-22.15-28.28-42.84-31.46-49.3-3.41-4.98-2.66-12.19,1.8-16.35.82-.76,20.33-18.89,49.44-35.33,39.42-22.27,77.7-30.63,110.71-24.17,21.71,4.25,42.86,15.06,62.89,32.12,2.31,1.97,2.59,5.44.62,7.75-1.97,2.31-5.44,2.59-7.75.62-18.57-15.82-38.04-25.82-57.87-29.7-30.41-5.95-66.08,1.99-103.19,22.96-27.98,15.81-46.56,33.07-47.34,33.79-.5.47-.62,1.61-.21,2.14l.34.44.24.5c2.77,5.69,13.16,25.93,30.41,47.72,10.07,12.72,20.8,23.75,31.88,32.77l5.17,4.21-5.11,4.28c-3.12,2.61-6.17,5.37-9.08,8.21-15.6,15.26-27.55,33.13-35.52,53.12-7.03,17.63-10.7,36.33-10.91,55.58-.35,31.64,8.82,62.16,26.51,88.25,17.29,25.5,41.46,45.07,69.89,56.6,2.82,1.14,4.17,4.35,3.03,7.16-.87,2.14-2.93,3.43-5.1,3.43Z"/>
  <path class="st0" d="M198.24,196.28c-23.83,0-41.46-5.19-51.14-8.97-11.91-4.65-18.63-9.21-18.91-9.4-2.51-1.72-3.15-5.14-1.43-7.65,1.71-2.5,5.13-3.15,7.64-1.44h0c.06.04,6.08,4.09,16.71,8.24,9.68,3.78,36.11,11.95,72.54,6.18,38.2-6.05,75.73-25.19,111.56-56.88,2.28-2.01,5.75-1.8,7.76.48,2.01,2.27,1.8,5.75-.47,7.76-37.42,33.1-76.83,53.12-117.13,59.51-9.75,1.54-18.81,2.18-27.12,2.18Z"/>
  <path class="st0" d="M318.19,134.2c-.89,0-1.79-.22-2.63-.67-52.19-28.45-105.41-35.98-140.87-37.29-38.57-1.43-65.09,3.99-65.35,4.05-2.98.62-5.89-1.29-6.51-4.26-.62-2.97,1.28-5.89,4.25-6.51,1.12-.23,27.82-5.72,67.65-4.28,36.73,1.32,91.88,9.1,146.08,38.64,2.67,1.45,3.65,4.79,2.2,7.46-1,1.83-2.89,2.87-4.83,2.87Z"/>
  <path class="st0" d="M404.65,186.21c-1.48,0-2.96-.6-4.04-1.77-2.06-2.23-1.92-5.71.32-7.77,39.88-36.76,56.7-110.82,56.86-111.56.66-2.96,3.59-4.83,6.56-4.18,2.96.66,4.83,3.6,4.18,6.56-.71,3.17-17.76,78.19-60.15,117.26-1.06.97-2.39,1.46-3.73,1.46Z"/>
  <path class="st0" d="M53.72,277.8c-2.15,0-4.19-1.27-5.07-3.37l-12.54-29.83-23.58,22.15c-2.21,2.08-5.7,1.97-7.77-.24-2.08-2.21-1.97-5.7.24-7.77l26.47-24.86c1.97-1.85,4.72-2.62,7.36-2.05,2.64.56,4.84,2.38,5.89,4.87l14.08,33.48c1.18,2.8-.14,6.02-2.94,7.2-.7.29-1.42.43-2.13.43Z"/>
  <path class="st0" d="M149.09,462.62c-2.89,0-5.32-2.26-5.49-5.19-.17-3.03,2.15-5.63,5.18-5.8l32.3-1.84-12.98-29.64c-1.22-2.78.05-6.03,2.83-7.25,2.79-1.22,6.03.05,7.25,2.83l15.15,34.59c.95,2.17.78,4.67-.46,6.69s-3.39,3.31-5.76,3.44l-37.71,2.14c-.11,0-.21,0-.32,0Z"/>
  <g>
    <path class="st0" d="M185.78,372.16c-3.04,0-5.5-2.46-5.5-5.5v-56.58h-12.79c-2.89,0-5.64-1.38-7.35-3.7-1.45-1.96-2.06-4.38-1.7-6.79.33-2.23,1.45-4.22,3.16-5.65l83.41-87.09c3.58-3.52,9.4-3.52,12.98,0l.12.12,84.01,87.64c1.64,1.71,2.55,3.96,2.55,6.33,0,5.05-4.11,9.15-9.15,9.15h-12.79v56.58c0,3.04-2.46,5.5-5.5,5.5s-5.5-2.46-5.5-5.5v-67.58h19.46l-79.67-83.12-79.61,83.12h19.39v67.58c0,3.04-2.46,5.5-5.5,5.5Z"/>
    <path class="st0" d="M251.5,314.64c-14.86,0-26.95-12.08-26.95-26.94,0-7.2,2.8-13.96,7.89-19.06s11.85-7.9,19.05-7.9h0c7.2,0,13.96,2.8,19.05,7.89,5.09,5.09,7.9,11.85,7.9,19.05h0c-.01,14.85-12.1,26.93-26.94,26.95ZM251.49,271.75h0c-8.79,0-15.94,7.16-15.94,15.95,0,8.79,7.16,15.94,15.95,15.94,8.78-.01,15.94-7.17,15.95-15.96,0-8.79-7.16-15.94-15.95-15.94Z"/>
  </g>
  <path class="st0" d="M356.27,451.04c-.72,0-1.46-.14-2.17-.45-2.79-1.2-4.08-4.43-2.88-7.23,3.14-7.29,4.77-16.75,4.48-25.95,0-.25-.01-.42-.01-.51,0-20.19-18.44-36.61-41.1-36.61-2.41,0-4.83.19-7.21.56-11.4,1.8-23.32-.83-33.59-7.38-7.08-4.47-15.26-6.84-23.66-6.84-.11,0-.23,0-.34,0-6.67,0-13.33,1.49-19.33,4.31-10.72,5.21-22.99,6.22-34.49,2.83-4.28-1.28-8.69-1.93-13.13-1.93h-.07c-22.67,0-41.11,16.42-41.11,36.61,0,3.56,2.12,10.96,5.57,16.74,1.55,2.61.7,5.99-1.91,7.54-2.61,1.56-5.99.7-7.54-1.91-4.13-6.93-7.12-16.34-7.12-22.38,0-26.25,23.37-47.6,52.1-47.6,5.54-.01,11.04.79,16.35,2.39,8.83,2.61,18.29,1.83,26.6-2.21,7.51-3.53,15.8-5.39,24.03-5.39.14,0,.28,0,.42,0,10.44,0,20.65,2.96,29.51,8.56,8.02,5.12,17.24,7.18,25.98,5.8,2.94-.46,5.93-.69,8.91-.69,28.73,0,52.1,21.36,52.1,47.61v.17c.2,6.32-.23,18.7-5.37,30.64-.9,2.08-2.92,3.33-5.06,3.33Z"/>
</svg>