<?xml version="1.0" encoding="UTF-8"?>
<svg id="Layer_1" xmlns="http://www.w3.org/2000/svg" version="1.1" viewBox="0 0 512 512">
  <!-- Generator: Adobe Illustrator 30.0.0, SVG Export Plug-In . SVG Version: 2.1.1 Build 123)  -->
  <defs>
    <style>
      .st0 {
        fill: #9f8151;
      }
    </style>
  </defs>
  <path class="st0" d="M38.59,506.93c-3.04,0-5.5-2.46-5.5-5.5V138.62c0-2.33,1.47-4.41,3.66-5.18L398.36,5.39c1.69-.6,3.55-.34,5.01.69,1.46,1.03,2.33,2.71,2.33,4.49v205.75c0,3.04-2.46,5.5-5.5,5.5s-5.5-2.46-5.5-5.5V18.35L44.09,142.51v358.92c0,3.04-2.46,5.5-5.5,5.5Z"/>
  <path class="st0" d="M225.78,506.93c-3.04,0-5.5-2.46-5.5-5.5V221.51c0-3.04,2.46-5.5,5.5-5.5h242.04c3.04,0,5.5,2.46,5.5,5.5v277.71c0,3.04-2.46,5.5-5.5,5.5s-5.5-2.46-5.5-5.5V227.01h-231.04v274.42c0,3.04-2.46,5.5-5.5,5.5Z"/>
  <path class="st0" d="M397.44,506.93c-3.04,0-5.5-2.46-5.5-5.5v-84.88h-90.27v84.88c0,3.04-2.46,5.5-5.5,5.5s-5.5-2.46-5.5-5.5v-90.38c0-3.04,2.46-5.5,5.5-5.5h101.27c3.04,0,5.5,2.46,5.5,5.5v90.38c0,3.04-2.46,5.5-5.5,5.5Z"/>
  <path class="st0" d="M346.8,506.93c-3.04,0-5.5-2.46-5.5-5.5v-90.38c0-3.04,2.46-5.5,5.5-5.5s5.5,2.46,5.5,5.5v90.38c0,3.04-2.46,5.5-5.5,5.5Z"/>
  <path class="st0" d="M467.82,317.37h-242.04c-3.04,0-5.5-2.46-5.5-5.5s2.46-5.5,5.5-5.5h242.04c3.04,0,5.5,2.46,5.5,5.5s-2.46,5.5-5.5,5.5Z"/>
  <path class="st0" d="M502,506.93H10c-3.04,0-5.5-2.46-5.5-5.5s2.46-5.5,5.5-5.5h491.99c3.04,0,5.5,2.46,5.5,5.5s-2.46,5.5-5.5,5.5Z"/>
  <path class="st0" d="M86.24,506.93c-3.04,0-5.5-2.46-5.5-5.5v-136.7c0-3.04,2.46-5.5,5.5-5.5h96.4c3.04,0,5.5,2.46,5.5,5.5v135.04c0,3.04-2.46,5.5-5.5,5.5s-5.5-2.46-5.5-5.5v-129.54h-85.4v131.2c0,3.04-2.46,5.5-5.5,5.5Z"/>
  <path class="st0" d="M182.65,403.72h-93.58c-3.04,0-5.5-2.46-5.5-5.5s2.46-5.5,5.5-5.5h93.58c3.04,0,5.5,2.46,5.5,5.5s-2.46,5.5-5.5,5.5Z"/>
  <path class="st0" d="M182.65,473.22h-93.58c-3.04,0-5.5-2.46-5.5-5.5s2.46-5.5,5.5-5.5h93.58c3.04,0,5.5,2.46,5.5,5.5s-2.46,5.5-5.5,5.5Z"/>
  <path class="st0" d="M182.65,438.47h-93.58c-3.04,0-5.5-2.46-5.5-5.5s2.46-5.5,5.5-5.5h93.58c3.04,0,5.5,2.46,5.5,5.5s-2.46,5.5-5.5,5.5Z"/>
</svg>