<?xml version="1.0" encoding="UTF-8"?>
<svg id="Layer_1" xmlns="http://www.w3.org/2000/svg" version="1.1" viewBox="0 0 512 512">
  <!-- Generator: Adobe Illustrator 30.0.0, SVG Export Plug-In . SVG Version: 2.1.1 Build 123)  -->
  <defs>
    <style>
      .st0 {
        fill: #9f8151;
      }
    </style>
  </defs>
  <path class="st0" d="M263.42,443.13c-49.54,0-111.91-30.69-136.42-43.89-2.83-1.52-3.89-5.05-2.37-7.88s5.05-3.89,7.88-2.37c23.74,12.78,84.02,42.5,130.91,42.5,29.39,0,58.24-8.67,79.15-23.78,15.45-11.17,33.86-30.92,33.86-61.62,0-57.31-55.22-70.27-103.94-81.71-3.54-.83-7.03-1.65-10.44-2.47-49.09-11.86-123.28-29.78-123.28-96.42s66.54-93.73,128.36-93.73c54.88,0,115.05,27.83,117.58,29.01,2.91,1.36,4.17,4.82,2.81,7.73-1.36,2.91-4.82,4.17-7.73,2.81-.6-.28-60.4-27.92-112.66-27.92-56.22,0-116.73,25.69-116.73,82.09,0,53.08,54.1,70.55,114.38,85.11,3.38.82,6.85,1.63,10.37,2.46,24.61,5.78,52.51,12.33,74.27,25.47,26,15.7,38.64,37.8,38.64,67.57,0,27.79-13.74,53.02-38.68,71.05-23.18,16.76-53.71,25.99-85.97,25.99Z"/>
  <path class="st0" d="M262.5,511.36c-3.21,0-5.82-2.6-5.82-5.82V6.45c0-3.21,2.6-5.82,5.82-5.82s5.82,2.6,5.82,5.82v499.09c0,3.21-2.6,5.82-5.82,5.82Z"/>
</svg>