<?xml version="1.0" encoding="UTF-8"?>
<svg id="Layer_1" xmlns="http://www.w3.org/2000/svg" version="1.1" viewBox="0 0 512 512">
  <!-- Generator: Adobe Illustrator 30.0.0, SVG Export Plug-In . SVG Version: 2.1.1 Build 123)  -->
  <defs>
    <style>
      .st0 {
        fill: #9f8151;
      }
    </style>
  </defs>
  <g>
    <path class="st0" d="M328.6,346.14c-1.3,0-2.61-.17-3.89-.54-6.71-1.66-13.13-3.77-19.08-6.27-11.92-5-22.89-11.71-32.66-19.96-5.4,3.49-10.91,6.9-16.43,10.15-6.07,3.63-13.35,3.63-19.45,0-18.64-10.96-65.69-40.73-99.42-80.03-23.59-27.47-35.78-54.15-36.24-79.29-.69-38.16,19.75-68.96,53.33-80.4,29.82-10.16,63.92-2.2,92.04,21.26,28.12-23.44,62.22-31.39,92.05-21.24,33.61,11.43,54.05,42.23,53.36,80.38-.06,3.04-.29,6.12-.69,9.23,4.86-1.81,9.86-3.32,14.9-4.51,6.97-1.64,14.17,2.41,16.38,9.22,9.74,30,7.88,62.39-5.25,91.19-13.2,28.97-36.65,51.7-66.04,64-6.19,2.61-12.66,4.74-19.21,6.31-1.2.33-2.45.5-3.7.5ZM273.44,307.23c1.3,0,2.6.47,3.61,1.39,9.64,8.71,20.66,15.69,32.75,20.77,5.47,2.3,11.39,4.25,17.6,5.77.09.02.18.05.27.07.29.09.58.12.89.13.32,0,.6-.04.87-.12.08-.02.16-.04.24-.06,6.01-1.44,11.95-3.38,17.65-5.79,54.95-22.99,83.58-85.33,65.21-141.92-.49-1.52-2.1-2.42-3.65-2.06-6.16,1.45-12.24,3.43-18.07,5.89-1.41.59-2.8,1.21-4.16,1.84-1.88.87-4.09.59-5.69-.73-1.6-1.32-2.3-3.44-1.81-5.45,1.41-5.74,2.18-11.44,2.28-16.96.6-33.3-17.05-60.11-46.06-69.98-27.37-9.31-59.14-1.02-84.98,22.17-2.05,1.84-5.15,1.84-7.2,0-25.83-23.22-57.59-31.51-84.96-22.19-28.99,9.88-46.63,36.7-46.03,70,.41,22.56,11.73,46.94,33.64,72.46,33.6,39.14,82.54,69.42,96.74,77.77,2.75,1.64,5.74,1.63,8.46,0,6.58-3.88,13.11-7.95,19.44-12.13.91-.6,1.94-.89,2.97-.89Z"/>
    <path class="st0" d="M337.69,319.53c-.68,0-1.35-.2-1.92-.59-.95-.64-1.52-1.72-1.51-2.86,0-1.35.53-33.43,27.25-57.34,1.41-1.26,3.58-1.14,4.84.27,1.26,1.41,1.14,3.58-.27,4.84-18.2,16.28-23.13,37.08-24.47,46.81,43.1-19.89,64.75-59.32,56.12-102.26-2.28.82-4.73,1.76-6.42,2.47-.02,0-.04.02-.06.02-25.62,10.72-35.83,19.99-45.49,41.31-.78,1.73-2.81,2.49-4.54,1.71-1.72-.78-2.49-2.81-1.71-4.54,10.39-22.93,21.86-33.4,49.05-44.79.02,0,.03-.01.05-.02,2.84-1.2,7.59-2.95,10.58-3.91.91-.29,1.9-.19,2.73.28s1.43,1.26,1.65,2.19c11.82,49.21-13.12,94.64-63.56,115.74-.35.15-.7.29-1.04.43-.42.17-.86.26-1.3.26Z"/>
    <path class="st0" d="M306.21,235.15s-.03,0-.05,0c-1.89-.03-3.41-1.59-3.38-3.48.43-28.55,9.99-54.55,26.93-73.22.66-.73,1.58-1.17,2.58-1.12.98.01,1.91.45,2.55,1.19,1.52,1.77,3.01,3.6,4.42,5.46,11.61,15.26,20.47,39.35,22.58,61.36.18,1.89-1.2,3.56-3.09,3.74-1.89.18-3.56-1.2-3.74-3.09-1.99-20.83-10.32-43.55-21.21-57.86-.53-.7-1.07-1.39-1.62-2.07-14.2,17.18-22.18,40.34-22.56,65.71-.03,1.88-1.56,3.38-3.43,3.38Z"/>
    <path class="st0" d="M317.03,318.52c-.47,0-.95-.1-1.41-.3-23.55-9.88-42.86-27.92-54.32-50.77-11.34-22.62-14.34-48.55-8.45-73.01.22-.93.82-1.72,1.66-2.19.83-.47,1.82-.56,2.73-.27,2.92.94,5.84,2.03,8.67,3.22.04.02.08.04.12.06,1.24.58,30.71,14.7,52.25,51.75,9.64,16.58,13.19,32.6,10.56,47.61h0c-2.49,14.21-8.87,22.29-9.14,22.62-.67.83-1.66,1.28-2.68,1.28ZM258.71,199.73c-9.28,45.87,14.22,91.72,57.07,111.08,1.8-2.97,4.83-8.95,6.31-17.38h0c2.35-13.38-.93-27.84-9.73-42.98-20-34.39-47.81-48.29-49.19-48.96-1.47-.62-2.96-1.2-4.47-1.75ZM325.47,294.02h0,0Z"/>
    <path class="st0" d="M296.99,489.62c-29.51,0-85.81-12.46-119.42-24.5-18.12-6.41-30.13-9.75-43.96-1.93-2.59,1.46-5.88.55-7.34-2.04-1.46-2.59-.55-5.88,2.04-7.34,19.1-10.8,36.27-4.72,52.88,1.16,34.41,12.33,92.87,25.11,119.63,23.78.69-.03,1.39-.1,2.09-.19,8.1-1.1,19.75-6.31,34.63-15.48,13.22-8.15,29.15-19.5,47.37-33.73,31.32-24.51,62.85-52.6,75.24-64.72,3.48-3.41,8.96-11.19,9.65-17.06.91-7.71,1.27-15.23-4.24-22.6-8.47-11.27-25.3-14.24-37.52-6.63l-103.8,68.28c-2.49,1.64-5.83.95-7.46-1.54-1.64-2.49-.95-5.83,1.54-7.46l103.86-68.32s.07-.04.1-.07c16.85-10.55,40.14-6.39,51.91,9.27,7.89,10.55,7.4,21.19,6.32,30.33-1.07,9.09-8.25,19.04-12.82,23.51-12.57,12.29-44.49,40.75-76.14,65.51-18.53,14.48-34.8,26.06-48.35,34.42-16.39,10.11-29.09,15.66-38.83,16.99-1.01.14-2.02.23-3.01.28-1.38.07-2.83.1-4.36.1Z"/>
    <path class="st0" d="M302.66,403.72c-1.65,0-3.32-.18-4.98-.54l-56.37-11.84c-2.91-.61-4.78-3.47-4.17-6.38.61-2.91,3.46-4.78,6.38-4.17l56.42,11.85c4.88,1.07,9.85-.86,12.69-4.91.16-.23.29-.41.39-.58.04-.07.08-.13.12-.19,2.2-3.42,2.82-7.11,1.76-10.38-1.11-3.4-3.96-6.14-8.02-7.72-18.18-7.03-41.72-11.97-69.94-14.71-21.91-2.09-44.18-2.71-66.17-1.84-5.09.22-9.72.55-12.07.87-1.04.14-1.98.13-2.99.12-4.04-.05-12.43-.11-41.55,12.79-2.72,1.21-5.91-.02-7.11-2.74-1.21-2.72.02-5.91,2.74-7.11,31.26-13.85,40.86-13.76,46.01-13.72.6,0,1.17.01,1.44-.03,2.73-.37,7.49-.72,13.08-.96,22.49-.89,45.25-.25,67.65,1.88,29.21,2.83,53.7,8,72.8,15.38,7.13,2.77,12.24,7.89,14.38,14.43,2.07,6.39,1.05,13.3-2.88,19.47-.21.35-.46.72-.74,1.13,0,.01-.06.09-.07.1-4.37,6.23-11.41,9.79-18.8,9.79Z"/>
    <path class="st0" d="M74.2,512.47c-14.97,0-28.28-10.59-31.32-25.63l-24.85-123.79c-1.68-8.35,0-16.86,4.72-23.95,4.72-7.1,11.92-11.93,20.27-13.61.03,0,.07-.01.1-.02l32.76-6.58c17.24-3.44,34.09,7.78,37.57,25.01l24.85,123.78c1.68,8.35,0,16.86-4.72,23.96-4.72,7.1-11.92,11.93-20.28,13.6l-32.85,6.6c-.62.13-1.29.24-2,.34,0,0,0,0-.01,0-1.42.19-2.84.28-4.24.28ZM77.72,506.85h0,0ZM82.14,329.06c-1.37,0-2.75.13-4.14.41l-32.85,6.6s-.07.01-.1.02c-11.32,2.28-18.75,13.43-16.45,24.85l24.85,123.79c2.2,10.88,12.54,18.26,23.55,16.79h0c.44-.06.87-.13,1.31-.22l32.87-6.6c5.54-1.11,10.3-4.31,13.43-9.01,3.13-4.7,4.24-10.33,3.13-15.87l-24.85-123.78c-2.02-10.02-10.88-16.98-20.75-16.98Z"/>
    <path class="st0" d="M62.56,248.08c-2.98,0-5.39-2.41-5.39-5.39v-26.89c0-2.98,2.41-5.39,5.39-5.39s5.39,2.41,5.39,5.39v26.89c0,2.98-2.41,5.39-5.39,5.39Z"/>
    <path class="st0" d="M62.56,296.39c-2.98,0-5.39-2.41-5.39-5.39v-26.89c0-2.98,2.41-5.39,5.39-5.39s5.39,2.41,5.39,5.39v26.89c0,2.98-2.41,5.39-5.39,5.39Z"/>
    <path class="st0" d="M98.94,258.79h-24.81c-2.98,0-5.39-2.41-5.39-5.39s2.41-5.39,5.39-5.39h24.81c2.98,0,5.39,2.41,5.39,5.39s-2.41,5.39-5.39,5.39Z"/>
    <path class="st0" d="M49.77,258.79h-24.81c-2.98,0-5.39-2.41-5.39-5.39s2.41-5.39,5.39-5.39h24.81c2.98,0,5.39,2.41,5.39,5.39s-2.41,5.39-5.39,5.39Z"/>
    <path class="st0" d="M337.3,218.89c-1.61,0-3.05-1.14-3.36-2.79-2.02-10.54-2.93-14.64-2.94-14.68-.41-1.85.75-3.68,2.6-4.1,1.85-.41,3.68.75,4.1,2.59.04.17.94,4.21,2.98,14.89.36,1.86-.86,3.66-2.72,4.01-.22.04-.43.06-.65.06Z"/>
    <path class="st0" d="M303.47,286.95c-1.65,0-3.1-1.19-3.38-2.87h0c-.04-.25-4.42-25.39-24.71-42.37-1.45-1.22-1.64-3.38-.43-4.83,1.22-1.45,3.38-1.64,4.83-.43,22.3,18.66,26.89,45.39,27.07,46.52.31,1.87-.96,3.63-2.83,3.94-.19.03-.37.05-.56.05Z"/>
  </g>
  <path class="st0" d="M138.37,37.67c-2.98,0-5.39-2.41-5.39-5.39V5.39c0-2.98,2.41-5.39,5.39-5.39s5.39,2.41,5.39,5.39v26.89c0,2.98-2.41,5.39-5.39,5.39Z"/>
  <path class="st0" d="M138.37,85.98c-2.98,0-5.39-2.41-5.39-5.39v-26.89c0-2.98,2.41-5.39,5.39-5.39s5.39,2.41,5.39,5.39v26.89c0,2.98-2.41,5.39-5.39,5.39Z"/>
  <path class="st0" d="M174.75,48.38h-24.81c-2.98,0-5.39-2.41-5.39-5.39s2.41-5.39,5.39-5.39h24.81c2.98,0,5.39,2.41,5.39,5.39s-2.41,5.39-5.39,5.39Z"/>
  <path class="st0" d="M125.58,48.38h-24.81c-2.98,0-5.39-2.41-5.39-5.39s2.41-5.39,5.39-5.39h24.81c2.98,0,5.39,2.41,5.39,5.39s-2.41,5.39-5.39,5.39Z"/>
  <path class="st0" d="M452.83,128.11c-2.98,0-5.39-2.41-5.39-5.39v-26.89c0-2.98,2.41-5.39,5.39-5.39s5.39,2.41,5.39,5.39v26.89c0,2.98-2.41,5.39-5.39,5.39Z"/>
  <path class="st0" d="M452.83,176.42c-2.98,0-5.39-2.41-5.39-5.39v-26.89c0-2.98,2.41-5.39,5.39-5.39s5.39,2.41,5.39,5.39v26.89c0,2.98-2.41,5.39-5.39,5.39Z"/>
  <path class="st0" d="M489.21,138.82h-24.81c-2.98,0-5.39-2.41-5.39-5.39s2.41-5.39,5.39-5.39h24.81c2.98,0,5.39,2.41,5.39,5.39s-2.41,5.39-5.39,5.39Z"/>
  <path class="st0" d="M440.05,138.82h-24.81c-2.98,0-5.39-2.41-5.39-5.39s2.41-5.39,5.39-5.39h24.81c2.98,0,5.39,2.41,5.39,5.39s-2.41,5.39-5.39,5.39Z"/>
</svg>