<?xml version="1.0" encoding="UTF-8"?>
<svg id="Layer_1" xmlns="http://www.w3.org/2000/svg" version="1.1" viewBox="0 0 512 512">
  <!-- Generator: Adobe Illustrator 30.0.0, SVG Export Plug-In . SVG Version: 2.1.1 Build 123)  -->
  <defs>
    <style>
      .st0, .st1 {
        stroke-miterlimit: 10;
      }

      .st0, .st1, .st2 {
        fill: none;
        stroke: #9f8151;
        stroke-width: 4px;
      }

      .st1, .st2 {
        fill-rule: evenodd;
      }

      .st2 {
        stroke-linejoin: round;
      }
    </style>
  </defs>
  <path class="st2" d="M274.52,313.54c-6.57,4.34-13.26,8.51-20.04,12.51-4.5,2.69-9.74,2.69-14.24.01-28.16-16.56-70.48-46.01-100.11-80.53-20.75-24.17-35.17-50.91-35.66-77.43h0c-.7-38.68,20.96-66.62,50.7-76.75,27.18-9.26,61.66-3.64,92.15,23.76,30.49-27.37,64.98-32.99,92.17-23.74,29.76,10.12,51.43,38.05,50.73,76.73h0c-.11,6.18-.97,12.36-2.48,18.52,1.46-.68,2.94-1.33,4.43-1.95,6.25-2.63,12.72-4.74,19.32-6.3,4.39-1.03,8.83,1.47,10.22,5.76,19.59,60.35-10.05,126.67-69.64,151.6-6.11,2.58-12.42,4.65-18.87,6.19-.79.23-1.62.34-2.44.34-.84,0-1.67-.12-2.48-.36-6.31-1.55-12.61-3.57-18.78-6.16-13.2-5.54-24.93-13.11-34.99-22.19Z"/>
  <path class="st1" d="M371.41,258.6c-24.3,29.32-27.08,61.58-27.08,61.58.34-.14.68-.28,1.02-.42h.02c48.6-20.34,74.03-72.7,62.11-122.32-2.91.94-5.78,2-8.6,3.19h-.02c-25.68,10.75-44.9,30.44-55.54,53.94-6.48,14.28-9.71,29.82-9.47,45.5"/>
  <path class="st1" d="M356.34,224.3c-1.86-19.43-8.99-38.6-21.68-55.29-1.4-1.85-2.86-3.65-4.38-5.41-15.64,17.24-24.93,38.67-27.41,60.88"/>
  <path class="st1" d="M324.83,298.26c2.83-16.13-2.12-32.07-10.35-46.23-21.69-37.29-51.79-51.4-51.79-51.4-2.81-1.18-5.67-2.24-8.56-3.18-11.95,49.61,13.52,101.94,62.08,122.31h0s6.19-7.72,8.61-21.5Z"/>
  <path class="st0" d="M323.33,384.45l105.99-69.72c14.84-9.29,35.32-5.66,45.67,8.1,6.83,9.13,6.41,18.34,5.38,27-.92,7.81-7.52,16.84-11.46,20.7-12.77,12.5-45.18,41.37-77.25,66.46-18.7,14.61-35.12,26.31-48.84,34.77-16.02,9.88-28.32,15.32-37.48,16.57-.89.12-1.76.2-2.6.24-27.93,1.39-88.61-11.83-124.19-24.58-17.97-6.36-32.83-10.96-49.43-1.58"/>
  <path class="st0" d="M242.87,388.5l57.58,12.09c7.09,1.56,14.41-1.29,18.58-7.23.25-.36.47-.67.64-.98,3.15-4.9,3.99-10.34,2.4-15.26-1.66-5.07-5.71-9.09-11.43-11.3-19.08-7.37-43.58-12.52-72.83-15.36-22.69-2.16-45.5-2.8-68.28-1.9-5.47.23-10.26.58-12.84.93-4.14.56-10.26-2.65-46.94,13.6"/>
  <path class="st0" d="M74.78,511.76c-14.15,1.9-27.34-7.51-30.17-21.5l-25.36-126.33c-2.95-14.65,6.54-28.91,21.19-31.86h0s33.53-6.74,33.53-6.74c14.66-2.92,28.91,6.57,31.87,21.22l25.36,126.32c2.94,14.65-6.55,28.92-21.2,31.86,0,0,0,0,0,0l-33.52,6.73c-.57.12-1.13.21-1.7.29h0Z"/>
  <line class="st0" x1="136.05" x2="136.05" y2="30.87"/>
  <line class="st0" x1="143.55" y1="38.37" x2="174.42" y2="38.37"/>
  <line class="st0" x1="128.56" y1="38.37" x2="97.68" y2="38.37"/>
  <line class="st0" x1="136.05" y1="45.87" x2="136.05" y2="76.74"/>
  <line class="st0" x1="456.98" y1="92.3" x2="456.98" y2="123.17"/>
  <line class="st0" x1="464.47" y1="130.67" x2="495.35" y2="130.67"/>
  <line class="st0" x1="449.48" y1="130.67" x2="418.61" y2="130.67"/>
  <line class="st0" x1="456.98" y1="138.17" x2="456.98" y2="169.04"/>
  <line class="st0" x1="59.31" y1="214.73" x2="59.31" y2="245.61"/>
  <line class="st0" x1="66.81" y1="253.1" x2="97.68" y2="253.1"/>
  <line class="st0" x1="51.81" y1="253.1" x2="20.94" y2="253.1"/>
  <line class="st0" x1="59.31" y1="260.6" x2="59.31" y2="291.48"/>
  <path class="st1" d="M329.6,176.43s7.5,10.11,9.89,21.02"/>
  <path class="st1" d="M313.28,303.17s-8.25-40.02-44.63-73.78"/>
</svg>