<?xml version="1.0" encoding="UTF-8"?>
<svg id="Layer_1" xmlns="http://www.w3.org/2000/svg" version="1.1" viewBox="0 0 40 40">
  <!-- Generator: Adobe Illustrator 30.0.0, SVG Export Plug-In . SVG Version: 2.1.1 Build 123)  -->
  <defs>
    <style>
      .st0 {
        fill: #9f8151;
      }
    </style>
  </defs>
  <g>
    <path class="st0" d="M25.69,26.97c-.09,0-.19-.01-.28-.04-.52-.13-1.02-.29-1.49-.49-.94-.4-1.81-.93-2.58-1.59-.44.28-.88.56-1.33.82-.45.27-.99.27-1.45,0-1.46-.86-5.14-3.18-7.77-6.25-1.84-2.14-2.79-4.21-2.82-6.16-.05-2.96,1.53-5.34,4.13-6.23,2.33-.79,4.99-.16,7.19,1.69,2.19-1.85,4.86-2.48,7.19-1.69,2.6.88,4.18,3.27,4.13,6.22,0,.28-.03.56-.07.84.42-.16.85-.29,1.28-.4.51-.12,1.03.18,1.19.67.76,2.33.61,4.85-.41,7.09-1.03,2.25-2.85,4.02-5.13,4.98-.48.2-.99.37-1.49.49-.09.02-.18.04-.27.04ZM21.37,24.07c.08,0,.17.03.23.09.76.69,1.63,1.24,2.59,1.64.43.18.9.34,1.39.46,0,0,.01,0,.02,0,.03,0,.06.01.09.01.03,0,.06,0,.09-.01,0,0,.01,0,.02,0,.48-.11.94-.27,1.39-.46,4.34-1.82,6.6-6.74,5.15-11.21-.05-.16-.22-.25-.38-.21-.49.11-.97.27-1.43.47-.11.05-.22.1-.33.14-.12.06-.26.04-.36-.05-.1-.08-.15-.22-.12-.35.11-.46.17-.91.18-1.35.05-2.64-1.36-4.77-3.66-5.56-2.17-.74-4.69-.08-6.73,1.75-.13.12-.33.12-.46,0-2.05-1.84-4.56-2.49-6.73-1.75-2.3.78-3.71,2.91-3.66,5.56.03,1.79.93,3.71,2.65,5.73,2.64,3.08,6.48,5.45,7.6,6.11.24.14.51.14.74,0,.52-.3,1.03-.62,1.53-.95.06-.04.12-.06.19-.06Z"/>
    <path class="st0" d="M26.73,25.27c-.07,0-.15-.02-.21-.07-.1-.07-.15-.2-.13-.32.01-.11.37-2.8,2.47-4.68.14-.13.36-.12.49.03.13.14.12.36-.03.49-1.32,1.18-1.88,2.75-2.11,3.61,3.09-1.57,4.76-4.96,4.11-8.37-.09.03-.18.07-.27.11-1.88.79-3.01,1.86-3.8,3.59-.24.53-.41,1.39-.51,2.55-.02.19-.18.33-.37.32-.19-.02-.33-.18-.32-.37.1-1.26.29-2.16.57-2.78.86-1.91,2.11-3.09,4.16-3.94.23-.09.46-.18.69-.26.09-.03.19-.02.27.03s.14.13.17.22c.47,1.94.23,3.99-.67,5.77-.91,1.81-2.43,3.23-4.3,4.02-.03.01-.05.02-.08.03-.04.02-.09.03-.13.03Z"/>
    <path class="st0" d="M23.61,18.81s0,0,0,0c-.19,0-.34-.16-.34-.35.03-2.26.79-4.31,2.13-5.79.07-.07.16-.12.26-.11.1,0,.19.04.26.12.12.14.24.28.35.43.92,1.21,1.62,3.11,1.78,4.85.02.19-.12.36-.31.38-.19.02-.36-.12-.38-.31-.15-1.62-.8-3.38-1.65-4.49-.02-.03-.04-.06-.07-.09-1.06,1.32-1.66,3.09-1.69,5.03,0,.19-.16.34-.35.34Z"/>
    <path class="st0" d="M24.57,25.24s-.09,0-.14-.03c-1.86-.78-3.39-2.21-4.3-4.01-.9-1.79-1.13-3.84-.67-5.77.02-.09.08-.17.17-.22.08-.05.18-.06.28-.03.23.07.46.16.69.25,0,0,0,0,.01,0,.1.05,2.43,1.16,4.13,4.09.76,1.32,1.05,2.59.84,3.78h0c-.2,1.13-.71,1.78-.73,1.81-.07.08-.17.13-.27.13ZM20.06,15.96c-.67,3.51,1.12,7,4.38,8.5.14-.24.35-.68.45-1.28h0c.18-1.03-.07-2.15-.75-3.32-1.55-2.66-3.7-3.75-3.82-3.81-.09-.04-.17-.07-.26-.1ZM25.23,23.24h0,0Z"/>
    <path class="st0" d="M23.21,38.21c-2.3,0-6.7-.97-9.33-1.91-1.4-.49-2.4-.77-3.51-.15-.17.09-.38.04-.47-.13-.09-.17-.04-.38.13-.47,1.47-.83,2.79-.36,4.08.1,2.7.97,7.3,1.97,9.4,1.87.06,0,.11,0,.17-.02.65-.09,1.57-.5,2.74-1.22,1.04-.64,2.29-1.53,3.72-2.65,2.46-1.92,4.93-4.13,5.9-5.08.28-.27.72-.9.78-1.38.07-.62.1-1.23-.35-1.83-.69-.91-2.05-1.16-3.04-.54l-8.13,5.35c-.16.1-.37.06-.48-.1-.1-.16-.06-.37.1-.48l8.14-5.35s0,0,0,0c1.29-.81,3.07-.49,3.97.71.6.8.56,1.62.48,2.32-.08.69-.63,1.45-.98,1.8-.98.96-3.48,3.19-5.96,5.13-1.45,1.13-2.72,2.04-3.78,2.69-1.27.79-2.26,1.22-3.01,1.32-.08.01-.15.02-.23.02-.11,0-.22,0-.34,0Z"/>
    <path class="st0" d="M23.66,31.48c-.12,0-.25-.01-.37-.04l-4.42-.93c-.19-.04-.31-.22-.27-.41.04-.19.22-.31.41-.27l4.42.93c.41.09.83-.07,1.07-.42.01-.02.02-.04.03-.05,0,0,0,0,0-.01.18-.29.24-.6.15-.88-.09-.29-.33-.52-.67-.65-1.43-.55-3.28-.94-5.5-1.16-1.72-.16-3.47-.21-5.2-.14-.4.02-.77.04-.95.07-.08.01-.15,0-.22,0-.32,0-.99,0-3.29,1.01-.17.08-.38,0-.46-.18-.08-.17,0-.38.18-.46,2.43-1.08,3.17-1.07,3.57-1.07.05,0,.1,0,.12,0,.21-.03.59-.06,1.02-.07,1.76-.07,3.54-.02,5.29.15,2.28.22,4.19.62,5.68,1.2.54.21.92.59,1.08,1.08.16.48.08,1-.22,1.46-.02.03-.04.05-.06.09,0,0,0,0,0,0-.33.47-.86.73-1.41.73Z"/>
    <path class="st0" d="M5.76,40c-1.14,0-2.15-.8-2.38-1.95l-1.95-9.7c-.26-1.31.59-2.59,1.89-2.85,0,0,0,0,0,0l2.57-.52c1.31-.26,2.59.59,2.85,1.9l1.95,9.7c.26,1.31-.59,2.59-1.89,2.85,0,0,0,0,0,0l-2.57.52s-.1.02-.15.03c0,0,0,0,0,0-.11.01-.22.02-.32.02ZM6.03,39.64h0,0ZM3.47,26.18s0,0,0,0c-.94.19-1.54,1.1-1.36,2.04l1.95,9.7c.18.89,1.03,1.5,1.93,1.38.04,0,.07-.01.11-.02l2.57-.52s0,0,0,0h0c.94-.19,1.55-1.1,1.36-2.04l-1.95-9.7c-.19-.94-1.1-1.54-2.04-1.36l-2.57.52Z"/>
    <path class="st0" d="M4.84,19.28c-.19,0-.35-.15-.35-.35v-2.11c0-.19.15-.35.35-.35s.35.15.35.35v2.11c0,.19-.15.35-.35.35Z"/>
    <path class="st0" d="M4.84,23.07c-.19,0-.35-.15-.35-.35v-2.11c0-.19.15-.35.35-.35s.35.15.35.35v2.11c0,.19-.15.35-.35.35Z"/>
    <path class="st0" d="M7.69,20.12h-1.94c-.19,0-.35-.15-.35-.35s.15-.35.35-.35h1.94c.19,0,.35.15.35.35s-.15.35-.35.35Z"/>
    <path class="st0" d="M3.84,20.12h-1.94c-.19,0-.35-.15-.35-.35s.15-.35.35-.35h1.94c.19,0,.35.15.35.35s-.15.35-.35.35Z"/>
    <path class="st0" d="M26.21,17.04c-.16,0-.31-.12-.34-.28-.15-.79-.37-1.24-.37-1.25-.08-.17-.01-.38.16-.46.17-.08.38-.01.46.16.01.02.26.54.43,1.42.04.19-.09.37-.27.4-.02,0-.04,0-.07,0Z"/>
    <path class="st0" d="M23.51,22.77c-.17,0-.31-.12-.34-.29h0s-.34-1.96-1.91-3.27c-.15-.12-.17-.34-.04-.49.12-.15.34-.17.49-.04,1.77,1.48,2.13,3.6,2.15,3.69.03.19-.1.37-.29.4-.02,0-.04,0-.06,0Z"/>
  </g>
  <path class="st0" d="M10.78,2.8c-.19,0-.35-.15-.35-.35V.35c0-.19.15-.35.35-.35s.35.15.35.35v2.11c0,.19-.15.35-.35.35Z"/>
  <path class="st0" d="M10.78,6.58c-.19,0-.35-.15-.35-.35v-2.11c0-.19.15-.35.35-.35s.35.15.35.35v2.11c0,.19-.15.35-.35.35Z"/>
  <path class="st0" d="M13.63,3.64h-1.94c-.19,0-.35-.15-.35-.35s.15-.35.35-.35h1.94c.19,0,.35.15.35.35s-.15.35-.35.35Z"/>
  <path class="st0" d="M9.78,3.64h-1.94c-.19,0-.35-.15-.35-.35s.15-.35.35-.35h1.94c.19,0,.35.15.35.35s-.15.35-.35.35Z"/>
  <path class="st0" d="M35.42,9.88c-.19,0-.35-.15-.35-.35v-2.11c0-.19.15-.35.35-.35s.35.15.35.35v2.11c0,.19-.15.35-.35.35Z"/>
  <path class="st0" d="M35.42,13.67c-.19,0-.35-.15-.35-.35v-2.11c0-.19.15-.35.35-.35s.35.15.35.35v2.11c0,.19-.15.35-.35.35Z"/>
  <path class="st0" d="M38.27,10.72h-1.94c-.19,0-.35-.15-.35-.35s.15-.35.35-.35h1.94c.19,0,.35.15.35.35s-.15.35-.35.35Z"/>
  <path class="st0" d="M34.42,10.72h-1.94c-.19,0-.35-.15-.35-.35s.15-.35.35-.35h1.94c.19,0,.35.15.35.35s-.15.35-.35.35Z"/>
</svg>