<?xml version="1.0" encoding="UTF-8"?>
<svg id="Layer_1" data-name="Layer 1" xmlns="http://www.w3.org/2000/svg" viewBox="0 0 40 40">
  <defs>
    <style>
      .cls-1 {
        fill: #9f8151;
      }
    </style>
  </defs>
  <path class="cls-1" d="M25.72,26.84c-.08,0-.16-.01-.24-.03-.52-.13-1.02-.29-1.47-.48-.98-.41-1.88-.97-2.67-1.67-.48.31-.97.62-1.46.91-.39.24-.87.24-1.26,0-1.46-.86-5.16-3.2-7.8-6.27-1.82-2.12-2.77-4.18-2.8-6.1-.05-2.9,1.49-5.23,4.04-6.1,2.33-.79,5.01-.13,7.19,1.78,2.18-1.91,4.86-2.57,7.19-1.78,2.54.87,4.09,3.2,4.04,6.1,0,.38-.05.77-.13,1.17.02,0,.04-.02.07-.03.49-.21,1-.37,1.52-.5.41-.1.84.14.98.55.75,2.31.61,4.8-.4,7.02-1.02,2.23-2.82,3.98-5.08,4.93-.48.2-.98.37-1.49.49-.07.02-.14.03-.22.03ZM21.36,24.31s.07.01.1.04c.79.71,1.68,1.28,2.67,1.69.45.19.93.35,1.43.47,0,0,0,0,0,0,.05.01.1.02.15.02.05,0,.1,0,.14-.02.5-.12.98-.28,1.45-.47,4.48-1.87,6.81-6.95,5.31-11.56-.08-.25-.35-.4-.61-.34-.5.12-1,.28-1.47.48-.11.05-.23.1-.34.15-.05.03-.12.02-.16-.02-.05-.04-.07-.1-.05-.16.12-.47.18-.95.19-1.4.05-2.76-1.42-4.98-3.83-5.8-2.26-.77-4.87-.09-6.99,1.81-.06.05-.15.05-.21,0-2.12-1.9-4.73-2.58-6.99-1.81-2.41.82-3.88,3.04-3.83,5.8.03,1.85.95,3.84,2.73,5.9,2.69,3.13,6.59,5.54,7.72,6.21.3.18.65.18.95,0,.52-.31,1.04-.63,1.55-.97.03-.02.06-.03.09-.03Z"/>
  <path class="cls-1" d="M26.77,25.13s-.06-.01-.09-.03c-.04-.03-.07-.08-.06-.14,0-.1.24-2.58,2.13-4.86.05-.07.15-.08.22-.02.07.05.08.15.02.22-1.48,1.79-1.91,3.73-2.03,4.43,3.5-1.56,5.41-5.32,4.59-9.06-.17.06-.33.12-.49.19-1.88.79-3.38,2.25-4.23,4.1-.49,1.08-.74,2.28-.72,3.46,0,.09-.07.16-.15.16-.09,0-.16-.07-.16-.15-.02-1.23.24-2.47.75-3.59.87-1.93,2.43-3.44,4.39-4.26.22-.09.45-.18.68-.25.04-.01.09,0,.12.01.04.02.06.06.07.1.46,1.91.22,3.93-.66,5.7-.89,1.78-2.4,3.19-4.25,3.96-.03.01-.05.02-.08.03-.02,0-.04.01-.06.01Z"/>
  <path class="cls-1" d="M23.55,17.71s-.01,0-.02,0c-.09,0-.15-.09-.14-.17.2-1.81.95-3.47,2.16-4.81.03-.03.07-.05.12-.05.04,0,.09.02.12.05.12.14.23.28.35.43.97,1.27,1.56,2.78,1.71,4.37,0,.09-.05.16-.14.17-.09,0-.16-.05-.17-.14-.15-1.53-.72-2.98-1.65-4.21-.07-.09-.14-.19-.22-.28-1.1,1.27-1.78,2.82-1.97,4.5,0,.08-.08.14-.15.14Z"/>
  <path class="cls-1" d="M24.59,25.1s-.04,0-.06-.01c-1.84-.77-3.35-2.18-4.24-3.96-.88-1.77-1.12-3.79-.66-5.7.01-.04.04-.08.07-.1.04-.02.08-.03.12-.01.23.07.46.16.68.25.1.05,2.4,1.15,4.09,4.05.75,1.29,1.02,2.53.82,3.69h0c-.19,1.09-.68,1.71-.7,1.74-.03.04-.08.06-.12.06ZM19.89,15.66c-.82,3.76,1.11,7.54,4.65,9.09.13-.2.43-.73.57-1.5.19-1.09-.07-2.26-.78-3.48-1.63-2.81-3.92-3.91-3.95-3.92-.16-.07-.32-.13-.49-.19ZM25.26,23.28h0,0Z"/>
  <path class="cls-1" d="M23.21,38.19c-2.3,0-6.71-.98-9.35-1.92-1.46-.52-2.51-.81-3.7-.13-.07.04-.17.02-.21-.06-.04-.07-.02-.17.06-.21,1.4-.79,2.7-.33,3.96.11,2.75.98,7.42,2,9.57,1.9.06,0,.13,0,.19-.02.69-.09,1.62-.51,2.85-1.26,1.05-.65,2.32-1.55,3.77-2.69,2.49-1.95,4.99-4.18,5.98-5.14.31-.31.78-.98.84-1.51.08-.64.11-1.32-.39-1.98-.75-1-2.25-1.27-3.33-.59l-8.21,5.4c-.07.05-.17.03-.21-.04-.05-.07-.03-.17.04-.21l8.22-5.4c1.22-.76,2.9-.46,3.75.66.56.75.53,1.5.45,2.2-.08.65-.6,1.37-.93,1.7-.99.97-3.51,3.21-6,5.16-1.46,1.14-2.74,2.05-3.8,2.71-1.26.78-2.23,1.21-2.97,1.31-.07,0-.14.02-.21.02-.11,0-.22,0-.34,0Z"/>
  <path class="cls-1" d="M23.67,31.4c-.11,0-.22-.01-.33-.04l-4.46-.94c-.08-.02-.14-.1-.12-.18.02-.08.1-.14.18-.12l4.46.94c.49.11.99-.09,1.28-.5.02-.03.03-.05.04-.06.22-.35.28-.72.17-1.06-.11-.35-.4-.63-.79-.78-1.46-.56-3.35-.96-5.6-1.18-1.75-.17-3.52-.22-5.27-.15-.42.02-.78.04-.98.07-.06,0-.12,0-.2,0-.34,0-1.04,0-3.4,1.04-.08.03-.17,0-.2-.08-.03-.08,0-.17.08-.2,2.42-1.07,3.14-1.06,3.53-1.06.06,0,.11,0,.15,0,.21-.03.58-.06,1.01-.07,1.77-.07,3.55-.02,5.31.15,2.29.22,4.2.63,5.69,1.2.49.19.83.53.98.97.14.43.07.9-.2,1.32-.01.02-.03.05-.05.08-.3.42-.77.66-1.27.66Z"/>
  <path class="cls-1" d="M5.59,40c-1.06,0-2-.75-2.21-1.81l-1.97-9.79c-.24-1.22.55-2.41,1.76-2.65,0,0,0,0,0,0l2.6-.52c1.22-.24,2.41.55,2.65,1.77l1.97,9.79c.24,1.22-.55,2.41-1.76,2.65,0,0,0,0,0,0l-2.6.52s-.09.02-.14.02c0,0,0,0,0,0-.1.01-.2.02-.3.02ZM5.87,39.83h0,0ZM3.24,26.05s0,0,0,0c-1.05.21-1.73,1.24-1.52,2.29l1.97,9.79c.2,1,1.15,1.68,2.17,1.54.04,0,.08-.01.12-.02l2.6-.52h0c1.05-.21,1.73-1.24,1.52-2.29l-1.97-9.79c-.21-1.05-1.24-1.73-2.29-1.52l-2.6.52Z"/>
  <path class="cls-1" d="M10.62,2.7c-.09,0-.16-.07-.16-.16V.16c0-.09.07-.16.16-.16s.16.07.16.16v2.39c0,.09-.07.16-.16.16Z"/>
  <path class="cls-1" d="M13.6,3.28h-2.39c-.09,0-.16-.07-.16-.16s.07-.16.16-.16h2.39c.09,0,.16.07.16.16s-.07.16-.16.16Z"/>
  <path class="cls-1" d="M10.04,3.28h-2.39c-.09,0-.16-.07-.16-.16s.07-.16.16-.16h2.39c.09,0,.16.07.16.16s-.07.16-.16.16Z"/>
  <path class="cls-1" d="M10.62,6.26c-.09,0-.16-.07-.16-.16v-2.39c0-.09.07-.16.16-.16s.16.07.16.16v2.39c0,.09-.07.16-.16.16Z"/>
  <path class="cls-1" d="M35.5,9.86c-.09,0-.16-.07-.16-.16v-2.39c0-.09.07-.16.16-.16s.16.07.16.16v2.39c0,.09-.07.16-.16.16Z"/>
  <path class="cls-1" d="M38.47,10.44h-2.39c-.09,0-.16-.07-.16-.16s.07-.16.16-.16h2.39c.09,0,.16.07.16.16s-.07.16-.16.16Z"/>
  <path class="cls-1" d="M34.92,10.44h-2.39c-.09,0-.16-.07-.16-.16s.07-.16.16-.16h2.39c.09,0,.16.07.16.16s-.07.16-.16.16Z"/>
  <path class="cls-1" d="M35.5,13.41c-.09,0-.16-.07-.16-.16v-2.39c0-.09.07-.16.16-.16s.16.07.16.16v2.39c0,.09-.07.16-.16.16Z"/>
  <path class="cls-1" d="M4.67,19.35c-.09,0-.16-.07-.16-.16v-2.39c0-.09.07-.16.16-.16s.16.07.16.16v2.39c0,.09-.07.16-.16.16Z"/>
  <path class="cls-1" d="M7.65,19.93h-2.39c-.09,0-.16-.07-.16-.16s.07-.16.16-.16h2.39c.09,0,.16.07.16.16s-.07.16-.16.16Z"/>
  <path class="cls-1" d="M4.09,19.93H1.7c-.09,0-.16-.07-.16-.16s.07-.16.16-.16h2.39c.09,0,.16.07.16.16s-.07.16-.16.16Z"/>
  <path class="cls-1" d="M4.67,22.91c-.09,0-.16-.07-.16-.16v-2.39c0-.09.07-.16.16-.16s.16.07.16.16v2.39c0,.09-.07.16-.16.16Z"/>
  <path class="cls-1" d="M26.39,15.62c-.07,0-.14-.05-.15-.12-.18-.8-.73-1.56-.74-1.57-.05-.07-.04-.17.03-.22.07-.05.17-.04.22.03.02.03.6.82.79,1.69.02.08-.03.17-.12.18-.01,0-.02,0-.03,0Z"/>
  <path class="cls-1" d="M24.36,23.81c-.07,0-.14-.05-.15-.12,0-.03-.67-3.09-3.41-5.64-.06-.06-.07-.16,0-.22.06-.06.16-.07.22,0,2.82,2.62,3.5,5.77,3.51,5.8.02.08-.04.17-.12.18-.01,0-.02,0-.03,0Z"/>
</svg>