<?xml version="1.0" encoding="UTF-8"?>
<svg id="Layer_1" xmlns="http://www.w3.org/2000/svg" version="1.1" viewBox="0 0 40 40">
  <!-- Generator: Adobe Illustrator 30.0.0, SVG Export Plug-In . SVG Version: 2.1.1 Build 123)  -->
  <defs>
    <style>
      .st0 {
        fill: #9f8151;
      }
    </style>
  </defs>
  <path class="st0" d="M25.69,26.92c-.09,0-.18-.01-.27-.04-.52-.13-1.02-.29-1.48-.49-.96-.4-1.84-.95-2.62-1.62-.45.3-.92.58-1.38.86-.43.26-.94.26-1.37,0-1.46-.86-5.14-3.19-7.78-6.26-1.83-2.13-2.78-4.2-2.81-6.14-.05-2.93,1.51-5.3,4.09-6.18,2.33-.79,5-.15,7.19,1.73,2.19-1.87,4.86-2.52,7.19-1.73,2.58.88,4.15,3.24,4.09,6.17,0,.32-.04.64-.09.97.45-.18.92-.33,1.4-.44.47-.11.96.16,1.11.62.75,2.32.61,4.83-.41,7.06-1.02,2.24-2.84,4-5.11,4.96-.48.2-.98.37-1.49.49-.08.02-.17.03-.25.03ZM21.35,24.16c.07,0,.13.02.18.07.77.7,1.65,1.26,2.62,1.66.44.18.91.34,1.41.46,0,0,0,0,.01,0,.04.01.08.02.12.02.04,0,.08,0,.11-.02,0,0,0,0,.01,0,.48-.12.96-.27,1.41-.46,4.39-1.84,6.69-6.83,5.22-11.35-.06-.2-.27-.31-.47-.26-.49.12-.98.27-1.45.47-.11.05-.22.1-.33.15-.09.04-.2.03-.28-.04-.08-.07-.12-.17-.09-.27.11-.46.18-.92.18-1.37.05-2.69-1.38-4.85-3.73-5.65-2.21-.75-4.76-.09-6.84,1.78-.1.09-.26.09-.36,0-2.07-1.86-4.63-2.53-6.84-1.78-2.35.8-3.77,2.97-3.72,5.65.03,1.81.94,3.76,2.68,5.8,2.66,3.1,6.53,5.49,7.65,6.15.26.16.56.16.82,0,.52-.31,1.03-.63,1.53-.96.05-.03.1-.04.15-.04Z"/>
  <path class="st0" d="M26.73,25.22c-.06,0-.12-.02-.16-.06-.08-.06-.12-.15-.1-.25.02-.12.4-3.05,2.49-4.91.11-.1.28-.09.38.02.1.11.09.28-.02.38-1.45,1.3-2.02,3.2-2.22,4.09,3.26-1.57,5.03-5.11,4.31-8.65-.12.04-.24.09-.36.14-1.85.77-3.32,2.2-4.14,4.02-.25.54-.42,1.42-.52,2.59-.01.15-.14.26-.29.25-.15-.01-.26-.14-.25-.29.1-1.25.29-2.16.56-2.77.88-1.94,2.45-3.47,4.42-4.29.22-.09.45-.18.69-.25.07-.02.15-.02.21.02.07.04.11.1.13.17.46,1.92.23,3.96-.67,5.74-.9,1.8-2.42,3.22-4.28,4-.03.01-.05.02-.08.03-.03.01-.07.02-.1.02Z"/>
  <path class="st0" d="M23.6,18.73s0,0,0,0c-.15,0-.27-.12-.27-.27.03-2.25.79-4.29,2.12-5.76.05-.06.13-.09.2-.09.08,0,.15.04.2.09.12.14.24.28.35.43.91,1.2,1.61,3.09,1.78,4.83.01.15-.09.28-.24.29-.15.01-.28-.09-.29-.24-.16-1.64-.81-3.43-1.67-4.55-.04-.05-.08-.11-.13-.16-1.12,1.35-1.74,3.17-1.77,5.17,0,.15-.12.27-.27.27Z"/>
  <path class="st0" d="M24.56,25.18s-.07,0-.11-.02c-1.86-.78-3.37-2.2-4.27-3.99-.89-1.78-1.13-3.82-.66-5.74.02-.07.06-.14.13-.17.07-.04.14-.04.21-.02.23.07.46.16.68.25,0,0,0,0,0,0,.1.05,2.42,1.16,4.11,4.07.76,1.3,1.04,2.56.83,3.75h0c-.2,1.12-.7,1.75-.72,1.78-.05.07-.13.1-.21.1ZM19.97,15.84c-.73,3.61,1.12,7.21,4.49,8.74.14-.23.38-.7.5-1.37h0c.18-1.05-.07-2.19-.77-3.38-1.57-2.7-3.76-3.8-3.87-3.85-.12-.05-.23-.09-.35-.14ZM25.23,23.26h0,0Z"/>
  <path class="st0" d="M23.2,38.2c-2.3,0-6.71-.98-9.34-1.92-1.42-.5-2.44-.79-3.59-.14-.13.07-.29.03-.37-.1-.07-.13-.03-.29.1-.37,1.44-.81,2.76-.35,4.03.1,2.72.97,7.35,1.98,9.47,1.88.06,0,.12,0,.18-.02.67-.09,1.58-.5,2.78-1.24,1.04-.64,2.3-1.54,3.74-2.66,2.47-1.93,4.95-4.15,5.93-5.1.3-.29.74-.93.8-1.43.08-.64.1-1.26-.36-1.89-.71-.95-2.13-1.2-3.16-.56l-8.16,5.37c-.12.08-.29.05-.37-.08-.08-.12-.05-.29.08-.37l8.17-5.37c1.26-.79,3-.48,3.88.69.59.78.55,1.59.47,2.28-.08.68-.62,1.42-.96,1.76-.99.96-3.49,3.2-5.98,5.14-1.45,1.14-2.73,2.04-3.79,2.7-1.27.78-2.25,1.21-2.99,1.31-.07.01-.15.02-.22.02-.11,0-.22,0-.34,0Z"/>
  <path class="st0" d="M23.65,31.45c-.12,0-.24-.01-.36-.04l-4.44-.93c-.15-.03-.24-.17-.21-.32.03-.15.17-.24.32-.21l4.44.93c.44.1.9-.08,1.16-.45.02-.02.03-.04.04-.06,0,0,0,0,0,0,.2-.31.25-.65.16-.95-.1-.31-.36-.56-.72-.7-1.44-.56-3.31-.95-5.54-1.17-1.73-.16-3.49-.21-5.23-.15-.41.02-.77.04-.96.07-.07,0-.14,0-.21,0-.33,0-1.01,0-3.33,1.02-.14.06-.3,0-.36-.14-.06-.14,0-.3.14-.36,2.43-1.08,3.16-1.07,3.56-1.07.06,0,.1,0,.14,0,.21-.03.59-.06,1.01-.07,1.76-.07,3.54-.02,5.3.15,2.28.22,4.2.62,5.69,1.2.52.2.89.57,1.04,1.04.15.46.07.96-.21,1.4-.02.03-.03.05-.05.08-.32.45-.83.71-1.36.71Z"/>
  <path class="st0" d="M5.68,40c-1.1,0-2.09-.78-2.31-1.89l-1.95-9.74c-.26-1.27.57-2.51,1.84-2.77,0,0,0,0,0,0l2.58-.52c1.27-.25,2.52.57,2.77,1.85l1.95,9.74c.26,1.27-.57,2.51-1.84,2.77,0,0,0,0,0,0l-2.58.52s-.1.02-.15.02c0,0,0,0,0,0-.11.01-.21.02-.31.02ZM5.95,39.71h0,0ZM3.36,26.13s0,0,0,0c-.98.2-1.62,1.16-1.42,2.14l1.95,9.74c.19.94,1.08,1.57,2.02,1.44.04,0,.08-.01.11-.02l2.58-.52s0,0,0,0h0c.98-.2,1.62-1.16,1.42-2.14l-1.95-9.74c-.2-.98-1.16-1.62-2.14-1.42l-2.58.52Z"/>
  <path class="st0" d="M10.68,2.92c-.15,0-.27-.12-.27-.27V.27c0-.15.12-.27.27-.27s.27.12.27.27v2.38c0,.15-.12.27-.27.27Z"/>
  <path class="st0" d="M13.63,3.5h-2.38c-.15,0-.27-.12-.27-.27s.12-.27.27-.27h2.38c.15,0,.27.12.27.27s-.12.27-.27.27Z"/>
  <path class="st0" d="M10.1,3.5h-2.38c-.15,0-.27-.12-.27-.27s.12-.27.27-.27h2.38c.15,0,.27.12.27.27s-.12.27-.27.27Z"/>
  <path class="st0" d="M10.68,6.45c-.15,0-.27-.12-.27-.27v-2.38c0-.15.12-.27.27-.27s.27.12.27.27v2.38c0,.15-.12.27-.27.27Z"/>
  <path class="st0" d="M35.41,10.03c-.15,0-.27-.12-.27-.27v-2.38c0-.15.12-.27.27-.27s.27.12.27.27v2.38c0,.15-.12.27-.27.27Z"/>
  <path class="st0" d="M38.37,10.61h-2.38c-.15,0-.27-.12-.27-.27s.12-.27.27-.27h2.38c.15,0,.27.12.27.27s-.12.27-.27.27Z"/>
  <path class="st0" d="M34.83,10.61h-2.38c-.15,0-.27-.12-.27-.27s.12-.27.27-.27h2.38c.15,0,.27.12.27.27s-.12.27-.27.27Z"/>
  <path class="st0" d="M35.41,13.57c-.15,0-.27-.12-.27-.27v-2.38c0-.15.12-.27.27-.27s.27.12.27.27v2.38c0,.15-.12.27-.27.27Z"/>
  <path class="st0" d="M4.76,19.47c-.15,0-.27-.12-.27-.27v-2.38c0-.15.12-.27.27-.27s.27.12.27.27v2.38c0,.15-.12.27-.27.27Z"/>
  <path class="st0" d="M7.72,20.05h-2.38c-.15,0-.27-.12-.27-.27s.12-.27.27-.27h2.38c.15,0,.27.12.27.27s-.12.27-.27.27Z"/>
  <path class="st0" d="M4.18,20.05H1.8c-.15,0-.27-.12-.27-.27s.12-.27.27-.27h2.38c.15,0,.27.12.27.27s-.12.27-.27.27Z"/>
  <path class="st0" d="M4.76,23c-.15,0-.27-.12-.27-.27v-2.38c0-.15.12-.27.27-.27s.27.12.27.27v2.38c0,.15-.12.27-.27.27Z"/>
  <path class="st0" d="M26.3,16.71c-.12,0-.24-.09-.26-.21-.17-.78-.71-1.51-.71-1.52-.09-.12-.06-.29.06-.38.12-.09.29-.06.38.06.03.03.62.84.81,1.72.03.15-.06.29-.21.32-.02,0-.04,0-.06,0Z"/>
  <path class="st0" d="M23.7,23c-.12,0-.23-.08-.26-.21,0-.03-.72-2.9-2.72-4.65-.11-.1-.12-.27-.03-.38s.27-.12.38-.03c2.13,1.86,2.86,4.8,2.89,4.93.03.14-.05.29-.2.33-.02,0-.04,0-.06,0Z"/>
</svg>