<svg width="146" height="73" viewBox="0 0 146 73" fill="none" xmlns="http://www.w3.org/2000/svg">
  <g clip-path="url(#clip0_3671_12124)">
    <path d="M73.3799 5.31001C74.2499 5.00001 74.8799 4.38001 74.8799 3.38001C74.8799 1.85001 73.4799 1.20001 71.6999 1.20001H69.6699V10.77H72.3199C74.3099 10.77 76.0599 9.96001 76.0599 8.12001C76.0599 6.62001 74.9699 5.60001 73.3799 5.31001ZM72.1999 10.18H71.0799V1.70001H71.8299C73.1399 1.70001 73.5799 2.35001 73.5799 3.32001C73.5799 3.48001 73.6699 5.07001 72.3999 5.35001C72.7399 5.44001 73.3299 5.63001 73.8299 6.10001C74.3599 6.54001 74.5799 7.19001 74.5799 7.97001C74.6099 9.28001 73.8599 10.18 72.2099 10.18" fill="white"/>
    <path d="M49.5301 10.43C50.1801 10.77 51.0301 10.93 51.7101 10.93C52.9601 10.93 55.1401 10.49 55.1401 8.31001C55.1401 6.78001 54.0501 5.94001 52.2401 4.69001C51.4001 4.10001 50.2801 3.51001 50.2801 2.51001C50.2801 1.70001 51.0301 1.20001 52.0901 1.20001C53.1501 1.20001 53.9601 1.70001 54.1501 1.82001L53.6201 0.920012C53.2501 0.760012 52.4701 0.700012 52.0601 0.700012C50.6901 0.700012 49.0701 1.29001 49.0701 2.94001C49.0701 4.25001 50.1001 4.97001 51.7801 6.18001C52.5601 6.74001 53.8101 7.65001 53.8101 8.74001C53.8101 9.77001 53.0001 10.39 51.7201 10.39C50.2201 10.39 49.1001 9.49001 48.8501 9.27001L49.5401 10.42L49.5301 10.43Z" fill="white"/>
    <path d="M61.9699 10.92C59.4099 10.92 57.4199 8.89 57.4199 5.96C57.4199 3.03 59.4199 1 61.9699 1C64.5199 1 66.5199 3.12 66.5199 5.96C66.5199 8.8 64.5199 10.92 61.9699 10.92ZM65.1199 5.97C65.1199 3.38 63.8699 1.54 61.9699 1.54C60.0699 1.54 58.8199 3.38 58.8199 5.97C58.8199 8.56 60.0699 10.4 61.9699 10.4C63.8699 10.4 65.1199 8.59 65.1199 5.97Z" fill="white"/>
    <!-- All other <path> elements below should also have fill="white" -->
  </g>
  <defs>
    <clipPath id="clip0_3671_12124">
      <rect width="145.04" height="71.6" fill="white" transform="translate(0 0.700012)"/>
    </clipPath>
  </defs>
</svg>