<?xml version="1.0" encoding="UTF-8"?>
<svg id="Layer_1" xmlns="http://www.w3.org/2000/svg" version="1.1" viewBox="0 0 512 512">
  <!-- Generator: Adobe Illustrator 30.0.0, SVG Export Plug-In . SVG Version: 2.1.1 Build 123)  -->
  <defs>
    <style>
      .st0 {
        fill: #9f8151;
      }
    </style>
  </defs>
  <g>
    <path class="st0" d="M328.53,345.82c-1.3,0-2.61-.17-3.89-.54-6.71-1.66-13.12-3.77-19.06-6.27-11.91-5-22.87-11.7-32.63-19.95-5.39,3.49-10.9,6.89-16.42,10.15-6.06,3.62-13.34,3.63-19.43,0-18.62-10.95-65.63-40.69-99.33-79.95-23.57-27.45-35.75-54.1-36.21-79.21-.69-38.12,19.73-68.9,53.28-80.33,29.8-10.15,63.86-2.2,91.95,21.24,28.1-23.42,62.16-31.36,91.96-21.22,33.57,11.42,54,42.19,53.31,80.31-.06,3.04-.29,6.12-.69,9.22,4.86-1.81,9.85-3.32,14.89-4.51,6.96-1.64,14.15,2.41,16.36,9.21,9.73,29.97,7.87,62.33-5.24,91.1-13.19,28.95-36.62,51.66-65.98,63.94-6.18,2.61-12.65,4.73-19.19,6.3-1.2.33-2.45.5-3.69.5ZM273.42,306.94c1.3,0,2.59.47,3.61,1.39,9.63,8.7,20.64,15.68,32.72,20.75,5.47,2.3,11.38,4.24,17.59,5.77.09.02.18.05.27.07.29.09.58.12.89.13.32,0,.6-.04.87-.12.08-.02.16-.04.24-.06,6.01-1.43,11.94-3.38,17.63-5.78,54.89-22.97,83.5-85.25,65.15-141.79-.49-1.52-2.1-2.42-3.65-2.06-6.15,1.45-12.23,3.43-18.06,5.88-1.4.59-2.8,1.2-4.16,1.83-1.88.87-4.09.59-5.69-.73-1.6-1.32-2.3-3.43-1.81-5.44,1.41-5.73,2.18-11.43,2.28-16.94.6-33.27-17.03-60.06-46.02-69.92-27.35-9.3-59.09-1.02-84.9,22.15-2.05,1.84-5.15,1.84-7.2,0-25.81-23.2-57.54-31.48-84.88-22.17-28.97,9.87-46.59,36.67-45.99,69.94.41,22.54,11.72,46.9,33.61,72.4,33.57,39.1,82.46,69.36,96.65,77.7,2.74,1.63,5.73,1.63,8.45,0,6.57-3.87,13.09-7.94,19.42-12.12.9-.6,1.94-.89,2.96-.89Z"/>
    <path class="st0" d="M337.61,321.2c-1.11,0-2.22-.35-3.15-1.02-1.51-1.09-2.35-2.87-2.22-4.73.09-1.4,2.62-34.5,29.8-58.83,2.22-1.98,5.62-1.79,7.6.42,1.98,2.22,1.79,5.62-.42,7.6-15.51,13.88-21.94,31.4-24.54,42.03,38.81-19.65,58.42-56.07,51.43-95.83-1.54.58-3.02,1.15-4.14,1.63-.02.01-.05.02-.07.03-25.05,10.48-35.01,19.51-44.42,40.27-1.23,2.71-4.42,3.91-7.13,2.68-2.71-1.23-3.91-4.42-2.68-7.13,10.5-23.16,22.65-34.28,50.02-45.74.02,0,.04-.02.06-.02,2.88-1.21,7.7-2.99,10.73-3.97,1.43-.46,2.98-.3,4.29.43,1.31.73,2.25,1.98,2.6,3.44,12.05,50.15-13.33,96.42-64.65,117.9-.35.15-.71.3-1.06.44-.66.27-1.35.4-2.04.4Z"/>
    <path class="st0" d="M306.16,236.89s-.05,0-.08,0c-2.97-.04-5.35-2.49-5.3-5.46.43-29,10.17-55.43,27.42-74.44,1.04-1.14,2.52-1.78,4.06-1.77,1.54.02,3,.7,4.01,1.87,1.55,1.79,3.06,3.66,4.49,5.55,11.81,15.51,20.81,39.97,22.95,62.31.28,2.96-1.89,5.59-4.85,5.87-2.96.29-5.59-1.89-5.87-4.85-1.96-20.48-10.12-42.78-20.8-56.81-.03-.03-.05-.07-.08-.1-12.94,16.61-20.2,38.55-20.56,62.53-.04,2.95-2.45,5.3-5.38,5.3Z"/>
    <path class="st0" d="M316.97,320.19c-.72,0-1.44-.14-2.13-.44-24.01-10.08-43.64-28.43-55.29-51.67-11.54-23.01-14.59-49.39-8.59-74.28.35-1.46,1.29-2.7,2.6-3.44,1.31-.73,2.86-.89,4.29-.43,2.97.96,5.94,2.06,8.82,3.28.07.03.13.06.2.09,1.27.59,31.24,14.96,53.07,52.49,9.87,16.97,13.5,33.42,10.78,48.89h0c-2.58,14.68-9.25,23.14-9.53,23.49-1.05,1.31-2.61,2.02-4.2,2.02ZM260.19,202.21c-7.78,43.59,14.47,86.74,54.73,105.79,1.7-3.12,3.98-8.29,5.18-15.17,2.26-12.9-.93-26.9-9.49-41.62-19.52-33.57-46.59-47.3-48.26-48.12-.72-.3-1.44-.59-2.17-.88ZM325.4,293.75h0,0Z"/>
    <path class="st0" d="M296.95,489.16c-29.48,0-85.73-12.44-119.31-24.47-18.1-6.41-30.1-9.74-43.92-1.93-2.59,1.46-5.87.55-7.34-2.04-1.46-2.59-.55-5.87,2.04-7.34,19.09-10.79,36.24-4.72,52.83,1.16,34.38,12.32,92.79,25.08,119.52,23.76.68-.03,1.38-.1,2.09-.19,8.1-1.1,19.73-6.3,34.59-15.47,13.2-8.14,29.13-19.48,47.33-33.7,31.29-24.49,62.8-52.55,75.17-64.66,3.48-3.4,8.95-11.17,9.64-17.05.91-7.7,1.27-15.22-4.23-22.58-8.47-11.26-25.28-14.23-37.49-6.62l-103.71,68.22c-2.48,1.64-5.82.95-7.46-1.54-1.63-2.48-.95-5.82,1.54-7.46l103.76-68.26s.07-.04.1-.07c16.84-10.54,40.1-6.38,51.87,9.26,7.89,10.54,7.39,21.17,6.31,30.3-1.07,9.09-8.25,19.02-12.8,23.48-12.55,12.28-44.45,40.71-76.07,65.45-18.51,14.47-34.77,26.04-48.31,34.39-16.38,10.1-29.07,15.65-38.79,16.97-1.01.14-2.02.23-3.01.28-1.37.07-2.83.1-4.35.1Z"/>
    <path class="st0" d="M302.62,403.35c-1.65,0-3.31-.18-4.97-.54l-56.32-11.83c-2.91-.61-4.77-3.47-4.16-6.38.61-2.91,3.46-4.78,6.38-4.16l56.37,11.84c4.88,1.07,9.84-.85,12.68-4.9.16-.23.29-.41.39-.58.04-.07.08-.13.12-.19,2.19-3.42,2.82-7.1,1.76-10.37-1.11-3.39-3.96-6.14-8.02-7.71-18.17-7.02-41.68-11.96-69.88-14.69-21.89-2.09-44.14-2.7-66.11-1.84-5.09.22-9.71.55-12.06.87-1.03.14-1.98.13-2.98.12-4.04-.05-12.42-.11-41.51,12.78-2.72,1.21-5.9-.02-7.1-2.74s.02-5.9,2.74-7.1c31.23-13.84,40.83-13.75,45.97-13.7.6,0,1.17.01,1.44-.03,2.73-.37,7.49-.72,13.06-.96,22.47-.89,45.21-.25,67.59,1.88,29.18,2.83,53.65,8,72.73,15.37,7.13,2.76,12.23,7.88,14.37,14.41,2.07,6.39,1.05,13.28-2.88,19.45-.21.35-.46.72-.74,1.12,0,.01-.06.09-.07.1-4.37,6.22-11.4,9.78-18.78,9.78Z"/>
    <path class="st0" d="M74.37,512c-14.95,0-28.26-10.58-31.29-25.6l-24.82-123.67c-1.68-8.34,0-16.84,4.71-23.93,4.72-7.09,11.91-11.92,20.25-13.59.03,0,.07-.01.1-.02l32.73-6.57c17.23-3.43,34.06,7.77,37.54,24.98l24.82,123.67c1.68,8.35,0,16.85-4.72,23.94-4.72,7.09-11.91,11.91-20.26,13.59l-32.82,6.59c-.62.13-1.28.24-2,.34,0,0,0,0-.01,0-1.42.19-2.84.28-4.24.28ZM77.89,506.38h0,0ZM82.3,328.75c-1.37,0-2.75.13-4.14.41l-32.82,6.59s-.07.01-.1.02c-11.31,2.27-18.73,13.42-16.44,24.83l24.82,123.67c2.19,10.87,12.52,18.24,23.53,16.77h0c.44-.06.87-.13,1.31-.22l32.84-6.6c5.53-1.11,10.3-4.31,13.42-9,3.12-4.69,4.23-10.32,3.12-15.85l-24.82-123.66c-2.02-10.01-10.87-16.96-20.73-16.96Z"/>
    <path class="st0" d="M62.74,247.85c-2.97,0-5.38-2.41-5.38-5.38v-26.86c0-2.97,2.41-5.38,5.38-5.38s5.38,2.41,5.38,5.38v26.86c0,2.97-2.41,5.38-5.38,5.38Z"/>
    <path class="st0" d="M62.74,296.11c-2.97,0-5.38-2.41-5.38-5.38v-26.86c0-2.97,2.41-5.38,5.38-5.38s5.38,2.41,5.38,5.38v26.86c0,2.97-2.41,5.38-5.38,5.38Z"/>
    <path class="st0" d="M99.09,258.55h-24.79c-2.97,0-5.38-2.41-5.38-5.38s2.41-5.38,5.38-5.38h24.79c2.97,0,5.38,2.41,5.38,5.38s-2.41,5.38-5.38,5.38Z"/>
    <path class="st0" d="M49.97,258.55h-24.79c-2.97,0-5.38-2.41-5.38-5.38s2.41-5.38,5.38-5.38h24.79c2.97,0,5.38,2.41,5.38,5.38s-2.41,5.38-5.38,5.38Z"/>
    <path class="st0" d="M337.23,220.64c-2.53,0-4.79-1.79-5.28-4.37-2.01-10.48-2.92-14.56-2.93-14.6-.65-2.9,1.17-5.78,4.08-6.43,2.9-.65,5.78,1.17,6.43,4.07.04.17.95,4.24,2.99,14.94.56,2.92-1.36,5.74-4.28,6.3-.34.07-.68.1-1.02.1Z"/>
    <path class="st0" d="M303.43,288.64c-2.59,0-4.87-1.87-5.31-4.51-.07-.41-4.4-24.74-24.01-41.15-2.28-1.91-2.58-5.3-.67-7.59,1.91-2.28,5.31-2.58,7.59-.67,22.83,19.11,27.53,46.51,27.72,47.66.48,2.93-1.51,5.7-4.44,6.18-.29.05-.59.07-.88.07Z"/>
  </g>
  <path class="st0" d="M138.48,37.63c-2.97,0-5.38-2.41-5.38-5.38V5.38c0-2.97,2.41-5.38,5.38-5.38s5.38,2.41,5.38,5.38v26.86c0,2.97-2.41,5.38-5.38,5.38Z"/>
  <path class="st0" d="M138.48,85.9c-2.97,0-5.38-2.41-5.38-5.38v-26.86c0-2.97,2.41-5.38,5.38-5.38s5.38,2.41,5.38,5.38v26.86c0,2.97-2.41,5.38-5.38,5.38Z"/>
  <path class="st0" d="M174.82,48.33h-24.79c-2.97,0-5.38-2.41-5.38-5.38s2.41-5.38,5.38-5.38h24.79c2.97,0,5.38,2.41,5.38,5.38s-2.41,5.38-5.38,5.38Z"/>
  <path class="st0" d="M125.7,48.33h-24.79c-2.97,0-5.38-2.41-5.38-5.38s2.41-5.38,5.38-5.38h24.79c2.97,0,5.38,2.41,5.38,5.38s-2.41,5.38-5.38,5.38Z"/>
  <path class="st0" d="M452.65,127.99c-2.97,0-5.38-2.41-5.38-5.38v-26.86c0-2.97,2.41-5.38,5.38-5.38s5.38,2.41,5.38,5.38v26.86c0,2.97-2.41,5.38-5.38,5.38Z"/>
  <path class="st0" d="M452.65,176.25c-2.97,0-5.38-2.41-5.38-5.38v-26.86c0-2.97,2.41-5.38,5.38-5.38s5.38,2.41,5.38,5.38v26.86c0,2.97-2.41,5.38-5.38,5.38Z"/>
  <path class="st0" d="M489,138.69h-24.79c-2.97,0-5.38-2.41-5.38-5.38s2.41-5.38,5.38-5.38h24.79c2.97,0,5.38,2.41,5.38,5.38s-2.41,5.38-5.38,5.38Z"/>
  <path class="st0" d="M439.88,138.69h-24.79c-2.97,0-5.38-2.41-5.38-5.38s2.41-5.38,5.38-5.38h24.79c2.97,0,5.38,2.41,5.38,5.38s-2.41,5.38-5.38,5.38Z"/>
</svg>